# Blender v2.79 (sub 0) OBJ File: 'Cube.blend'
# www.blender.org
mtllib Cube.mtl
o Cube_Cube.001
v -0.875000 -1.000000 0.875000
v -0.875000 -0.875000 1.000000
v -1.000000 -0.875000 0.875000
v -0.875000 -0.963388 0.963388
v -0.947169 -0.947169 0.947169
v -0.963388 -0.875000 0.963388
v -0.963388 -0.963388 0.875000
v -0.875000 0.875000 1.000000
v -0.875000 1.000000 0.875000
v -1.000000 0.875000 0.875000
v -0.875000 0.963388 0.963388
v -0.947169 0.947169 0.947169
v -0.963388 0.963388 0.875000
v -0.963388 0.875000 0.963388
v -0.875000 -1.000000 -0.875000
v -1.000000 -0.875000 -0.875000
v -0.875000 -0.875000 -1.000000
v -0.963388 -0.963388 -0.875000
v -0.947169 -0.947169 -0.947169
v -0.963388 -0.875000 -0.963388
v -0.875000 -0.963388 -0.963388
v -0.875000 1.000000 -0.875000
v -0.875000 0.875000 -1.000000
v -1.000000 0.875000 -0.875000
v -0.875000 0.963388 -0.963388
v -0.947169 0.947169 -0.947169
v -0.963388 0.875000 -0.963388
v -0.963388 0.963388 -0.875000
v 0.875000 -1.000000 0.875000
v 1.000000 -0.875000 0.875000
v 0.875000 -0.875000 1.000000
v 0.963388 -0.963388 0.875000
v 0.947169 -0.947169 0.947169
v 0.963388 -0.875000 0.963388
v 0.875000 -0.963388 0.963388
v 0.875000 1.000000 0.875000
v 0.875000 0.875000 1.000000
v 1.000000 0.875000 0.875000
v 0.875000 0.963388 0.963388
v 0.947169 0.947169 0.947169
v 0.963388 0.875000 0.963388
v 0.963388 0.963388 0.875000
v 0.875000 -1.000000 -0.875000
v 0.875000 -0.875000 -1.000000
v 1.000000 -0.875000 -0.875000
v 0.875000 -0.963388 -0.963388
v 0.947169 -0.947169 -0.947169
v 0.963388 -0.875000 -0.963388
v 0.963388 -0.963388 -0.875000
v 0.875000 1.000000 -0.875000
v 1.000000 0.875000 -0.875000
v 0.875000 0.875000 -1.000000
v 0.963388 0.963388 -0.875000
v 0.947169 0.947169 -0.947169
v 0.963388 0.875000 -0.963388
v 0.875000 0.963388 -0.963388
v 0.291667 -1.000000 -0.875000
v -0.291667 -1.000000 -0.875000
v -0.291667 -0.963388 -0.963388
v 0.291667 -0.963388 -0.963388
v -0.291667 -0.875000 -1.000000
v 0.291667 -0.875000 -1.000000
v -0.291667 1.000000 -0.875000
v 0.291667 1.000000 -0.875000
v 0.291667 0.963388 -0.963388
v -0.291667 0.963388 -0.963388
v 0.291667 0.875000 -1.000000
v -0.291667 0.875000 -1.000000
v -0.291667 -1.000000 0.875000
v 0.291667 -1.000000 0.875000
v 0.291667 -0.963388 0.963388
v -0.291667 -0.963388 0.963388
v 0.291667 -0.875000 1.000000
v -0.291667 -0.875000 1.000000
v 0.291667 1.000000 0.875000
v -0.291667 1.000000 0.875000
v -0.291667 0.963388 0.963388
v 0.291667 0.963388 0.963388
v -0.291667 0.875000 1.000000
v 0.291667 0.875000 1.000000
v -0.875000 -1.000000 -0.291667
v -0.875000 -1.000000 0.291667
v -0.963388 -0.963388 0.291667
v -0.963388 -0.963388 -0.291667
v -1.000000 -0.875000 0.291667
v -1.000000 -0.875000 -0.291667
v -0.875000 1.000000 0.291667
v -0.875000 1.000000 -0.291667
v -0.963388 0.963388 -0.291667
v -0.963388 0.963388 0.291667
v -1.000000 0.875000 -0.291667
v -1.000000 0.875000 0.291667
v 0.875000 -1.000000 0.291667
v 0.875000 -1.000000 -0.291667
v 0.963388 -0.963388 -0.291667
v 0.963388 -0.963388 0.291667
v 1.000000 -0.875000 -0.291667
v 1.000000 -0.875000 0.291667
v 0.875000 1.000000 -0.291667
v 0.875000 1.000000 0.291667
v 0.963388 0.963388 0.291667
v 0.963388 0.963388 -0.291667
v 1.000000 0.875000 0.291667
v 1.000000 0.875000 -0.291667
v -0.291667 -1.000000 -0.291667
v -0.291667 -1.000000 0.291667
v 0.291667 -1.000000 -0.291667
v 0.291667 -1.000000 0.291667
v 0.291667 1.000000 -0.291667
v 0.291667 1.000000 0.291667
v -0.291667 1.000000 -0.291667
v -0.291667 1.000000 0.291667
v -0.875000 -0.291667 1.000000
v -0.875000 0.291667 1.000000
v -0.963388 0.291667 0.963388
v -0.963388 -0.291667 0.963388
v -1.000000 0.291667 0.875000
v -1.000000 -0.291667 0.875000
v -0.875000 0.291667 -1.000000
v -0.875000 -0.291667 -1.000000
v -0.963388 -0.291667 -0.963388
v -0.963388 0.291667 -0.963388
v -1.000000 -0.291667 -0.875000
v -1.000000 0.291667 -0.875000
v 1.000000 0.291667 -0.875000
v 1.000000 -0.291667 -0.875000
v 0.963388 -0.291667 -0.963388
v 0.963388 0.291667 -0.963388
v 0.875000 -0.291667 -1.000000
v 0.875000 0.291667 -1.000000
v 0.875000 0.291667 1.000000
v 0.875000 -0.291667 1.000000
v 0.963388 -0.291667 0.963388
v 0.963388 0.291667 0.963388
v 1.000000 -0.291667 0.875000
v 1.000000 0.291667 0.875000
v -0.291667 0.291667 -1.000000
v -0.291667 -0.291667 -1.000000
v 0.291667 0.291667 -1.000000
v 0.291667 -0.291667 -1.000000
v 0.291667 0.291667 1.000000
v 0.291667 -0.291667 1.000000
v -0.291667 0.291667 1.000000
v -0.291667 -0.291667 1.000000
v -1.000000 0.291667 0.291667
v -1.000000 -0.291667 0.291667
v -1.000000 0.291667 -0.291667
v -1.000000 -0.291667 -0.291667
v 1.000000 0.291667 -0.291667
v 1.000000 -0.291667 -0.291667
v 1.000000 0.291667 0.291667
v 1.000000 -0.291667 0.291667
vn 0.0000 0.0000 1.0000
vn 0.0000 0.1951 0.9808
vn -0.1794 0.1794 0.9673
vn -0.1951 0.0000 0.9808
vn 1.0000 0.0000 0.0000
vn 0.9808 0.1951 0.0000
vn 0.9673 0.1794 0.1794
vn 0.9808 0.0000 0.1951
vn 0.0000 1.0000 0.0000
vn -0.1951 0.9808 0.0000
vn -0.1794 0.9673 0.1794
vn 0.0000 0.9808 0.1951
vn -1.0000 0.0000 0.0000
vn -0.9808 0.1951 0.0000
vn -0.9673 0.1794 -0.1794
vn -0.9808 0.0000 -0.1951
vn 0.0000 0.0000 -1.0000
vn 0.0000 0.1951 -0.9808
vn 0.1794 0.1794 -0.9673
vn 0.1951 0.0000 -0.9808
vn -0.1794 -0.9673 0.1794
vn -0.1726 -0.6965 0.6965
vn -0.5773 -0.5773 0.5773
vn -0.6965 -0.6965 0.1726
vn -0.1794 -0.1794 0.9673
vn -0.6965 -0.1726 0.6965
vn -0.9673 -0.1794 0.1794
vn -0.1726 0.6965 0.6965
vn -0.5773 0.5773 0.5773
vn -0.6965 0.1726 0.6965
vn -0.6965 0.6965 0.1726
vn -0.9673 0.1794 0.1794
vn -0.1794 -0.9673 -0.1794
vn -0.6965 -0.6965 -0.1726
vn -0.5773 -0.5773 -0.5773
vn -0.1726 -0.6965 -0.6965
vn -0.9673 -0.1794 -0.1794
vn -0.6965 -0.1726 -0.6965
vn -0.1794 -0.1794 -0.9673
vn -0.1794 0.9673 -0.1794
vn -0.1726 0.6965 -0.6965
vn -0.5773 0.5773 -0.5773
vn -0.6965 0.6965 -0.1726
vn -0.1794 0.1794 -0.9673
vn -0.6965 0.1726 -0.6965
vn 0.1794 -0.9673 0.1794
vn 0.6965 -0.6965 0.1726
vn 0.5773 -0.5773 0.5773
vn 0.1726 -0.6965 0.6965
vn 0.9673 -0.1794 0.1794
vn 0.6965 -0.1726 0.6965
vn 0.1794 -0.1794 0.9673
vn 0.1794 0.9673 0.1794
vn 0.1726 0.6965 0.6965
vn 0.5773 0.5773 0.5773
vn 0.6965 0.6965 0.1726
vn 0.1794 0.1794 0.9673
vn 0.6965 0.1726 0.6965
vn 0.1794 -0.9673 -0.1794
vn 0.1726 -0.6965 -0.6965
vn 0.5773 -0.5773 -0.5773
vn 0.6965 -0.6965 -0.1726
vn 0.1794 -0.1794 -0.9673
vn 0.6965 -0.1726 -0.6965
vn 0.9673 -0.1794 -0.1794
vn 0.1794 0.9673 -0.1794
vn 0.6965 0.6965 -0.1726
vn 0.5773 0.5773 -0.5773
vn 0.1726 0.6965 -0.6965
vn 0.9673 0.1794 -0.1794
vn 0.6965 0.1726 -0.6965
vn -0.1951 -0.9808 0.0000
vn -0.7071 -0.7071 0.0000
vn -0.9808 -0.1951 0.0000
vn -0.7071 0.0000 0.7071
vn -0.9808 0.0000 0.1951
vn -0.7071 0.7071 0.0000
vn -0.1951 0.0000 -0.9808
vn -0.7071 0.0000 -0.7071
vn 0.0000 -0.9808 -0.1951
vn 0.0000 -0.7071 -0.7071
vn 0.0000 -0.1951 -0.9808
vn 0.0000 0.9808 -0.1951
vn 0.0000 0.7071 -0.7071
vn 0.9808 0.0000 -0.1951
vn 0.7071 0.0000 -0.7071
vn 0.1951 -0.9808 0.0000
vn 0.7071 -0.7071 0.0000
vn 0.9808 -0.1951 0.0000
vn 0.1951 0.9808 0.0000
vn 0.7071 0.7071 0.0000
vn 0.1951 0.0000 0.9808
vn 0.7071 0.0000 0.7071
vn 0.0000 -0.9808 0.1951
vn 0.0000 -0.7071 0.7071
vn 0.0000 -0.1951 0.9808
vn 0.0000 0.7071 0.7071
vn 0.0000 -1.0000 0.0000
usemtl None
s 1
f 143//1 79//2 8//3 114//4
f 151//5 103//6 38//7 136//8
f 112//9 87//10 9//11 76//12
f 147//13 91//14 24//15 124//16
f 139//17 67//18 52//19 130//20
f 1//21 4//22 5//23 7//24
f 2//25 6//26 5//23 4//22
f 3//27 7//24 5//23 6//26
f 8//3 11//28 12//29 14//30
f 9//11 13//31 12//29 11//28
f 10//32 14//30 12//29 13//31
f 15//33 18//34 19//35 21//36
f 16//37 20//38 19//35 18//34
f 17//39 21//36 19//35 20//38
f 22//40 25//41 26//42 28//43
f 23//44 27//45 26//42 25//41
f 24//15 28//43 26//42 27//45
f 29//46 32//47 33//48 35//49
f 30//50 34//51 33//48 32//47
f 31//52 35//49 33//48 34//51
f 36//53 39//54 40//55 42//56
f 37//57 41//58 40//55 39//54
f 38//7 42//56 40//55 41//58
f 43//59 46//60 47//61 49//62
f 44//63 48//64 47//61 46//60
f 45//65 49//62 47//61 48//64
f 50//66 53//67 54//68 56//69
f 51//70 55//71 54//68 53//67
f 52//19 56//69 54//68 55//71
f 82//72 1//21 7//24 83//73
f 83//73 7//24 3//27 85//74
f 114//4 8//3 14//30 115//75
f 115//75 14//30 10//32 117//76
f 88//10 22//40 28//43 89//77
f 89//77 28//43 24//15 91//14
f 120//78 17//39 20//38 121//79
f 121//79 20//38 16//37 123//16
f 58//80 15//33 21//36 59//81
f 59//81 21//36 17//39 61//82
f 64//83 50//66 56//69 65//84
f 65//84 56//69 52//19 67//18
f 126//85 45//65 48//64 127//86
f 127//86 48//64 44//63 129//20
f 94//87 43//59 49//62 95//88
f 95//88 49//62 45//65 97//89
f 100//90 36//53 42//56 101//91
f 101//91 42//56 38//7 103//6
f 132//92 31//52 34//51 133//93
f 133//93 34//51 30//50 135//8
f 70//94 29//46 35//49 71//95
f 71//95 35//49 31//52 73//96
f 76//12 9//11 11//28 77//97
f 77//97 11//28 8//3 79//2
f 108//98 93//87 29//46 70//94
f 82//72 106//98 69//94 1//21
f 106//98 108//98 70//94 69//94
f 39//54 78//97 80//2 37//57
f 78//97 77//97 79//2 80//2
f 36//53 75//12 78//97 39//54
f 75//12 76//12 77//97 78//97
f 4//22 72//95 74//96 2//25
f 72//95 71//95 73//96 74//96
f 1//21 69//94 72//95 4//22
f 69//94 70//94 71//95 72//95
f 25//41 66//84 68//18 23//44
f 66//84 65//84 67//18 68//18
f 22//40 63//83 66//84 25//41
f 63//83 64//83 65//84 66//84
f 46//60 60//81 62//82 44//63
f 60//81 59//81 61//82 62//82
f 43//59 57//80 60//81 46//60
f 57//80 58//80 59//81 60//81
f 119//78 23//44 68//18 137//17
f 137//17 68//18 67//18 139//17
f 100//90 110//9 75//12 36//53
f 110//9 112//9 76//12 75//12
f 131//92 37//57 80//2 141//1
f 141//1 80//2 79//2 143//1
f 64//83 63//83 111//9 109//9
f 109//9 111//9 112//9 110//9
f 50//66 64//83 109//9 99//90
f 99//90 109//9 110//9 100//90
f 58//80 57//80 107//98 105//98
f 105//98 107//98 108//98 106//98
f 15//33 58//80 105//98 81//72
f 81//72 105//98 106//98 82//72
f 57//80 43//59 94//87 107//98
f 107//98 94//87 93//87 108//98
f 53//67 102//91 104//6 51//70
f 102//91 101//91 103//6 104//6
f 50//66 99//90 102//91 53//67
f 99//90 100//90 101//91 102//91
f 32//47 96//88 98//89 30//50
f 96//88 95//88 97//89 98//89
f 29//46 93//87 96//88 32//47
f 93//87 94//87 95//88 96//88
f 13//31 90//77 92//14 10//32
f 90//77 89//77 91//14 92//14
f 9//11 87//10 90//77 13//31
f 87//10 88//10 89//77 90//77
f 18//34 84//73 86//74 16//37
f 84//73 83//73 85//74 86//74
f 15//33 81//72 84//73 18//34
f 81//72 82//72 83//73 84//73
f 117//76 10//32 92//14 145//13
f 145//13 92//14 91//14 147//13
f 63//83 22//40 88//10 111//9
f 111//9 88//10 87//10 112//9
f 125//85 51//70 104//6 149//5
f 149//5 104//6 103//6 151//5
f 97//89 150//5 152//5 98//89
f 150//5 149//5 151//5 152//5
f 45//65 126//85 150//5 97//89
f 126//85 125//85 149//5 150//5
f 85//74 146//13 148//13 86//74
f 146//13 145//13 147//13 148//13
f 3//27 118//76 146//13 85//74
f 118//76 117//76 145//13 146//13
f 73//96 142//1 144//1 74//96
f 142//1 141//1 143//1 144//1
f 31//52 132//92 142//1 73//96
f 132//92 131//92 141//1 142//1
f 61//82 138//17 140//17 62//82
f 138//17 137//17 139//17 140//17
f 17//39 120//78 138//17 61//82
f 120//78 119//78 137//17 138//17
f 41//58 134//93 136//8 38//7
f 134//93 133//93 135//8 136//8
f 37//57 131//92 134//93 41//58
f 131//92 132//92 133//93 134//93
f 55//71 128//86 130//20 52//19
f 128//86 127//86 129//20 130//20
f 51//70 125//85 128//86 55//71
f 125//85 126//85 127//86 128//86
f 27//45 122//79 124//16 24//15
f 122//79 121//79 123//16 124//16
f 23//44 119//78 122//79 27//45
f 119//78 120//78 121//79 122//79
f 6//26 116//75 118//76 3//27
f 116//75 115//75 117//76 118//76
f 2//25 113//4 116//75 6//26
f 113//4 114//4 115//75 116//75
f 62//82 140//17 129//20 44//63
f 140//17 139//17 130//20 129//20
f 86//74 148//13 123//16 16//37
f 148//13 147//13 124//16 123//16
f 98//89 152//5 135//8 30//50
f 152//5 151//5 136//8 135//8
f 74//96 144//1 113//4 2//25
f 144//1 143//1 114//4 113//4
