# Blender v2.78 (sub 0) OBJ File: 'PointLight.blend'
# www.blender.org
mtllib PointLight.mtl
o Plane
v 0.064531 -0.007332 0.000000
v 0.053464 0.208855 -0.000354
v 0.000472 0.519232 -0.000354
v 0.114548 0.471980 -0.000354
v 0.149520 0.419641 -0.000354
v 0.161800 0.357904 -0.000354
v 0.149520 0.296166 -0.000354
v 0.114548 0.243827 -0.000354
v 0.064480 0.154809 -0.000266
v 0.064514 0.046715 -0.000089
v 0.053683 0.181832 -0.000310
v 0.053700 0.127785 -0.000221
v 0.053717 0.073738 -0.000133
v 0.053734 0.019692 -0.000044
v 0.064545 0.208823 -0.000354
v 0.059332 -0.007332 0.024774
v 0.049243 0.208855 0.020212
v 0.057322 0.506952 0.023558
v 0.105677 0.471980 0.043587
v 0.137987 0.419641 0.056970
v 0.149332 0.357904 0.061670
v 0.137987 0.296166 0.056970
v 0.105677 0.243827 0.043587
v 0.059368 0.100762 0.024597
v 0.059386 0.154809 0.024509
v 0.059350 0.046715 0.024685
v 0.049428 0.181832 0.020336
v 0.049410 0.127785 0.020424
v 0.049392 0.073738 0.020513
v 0.049373 0.019692 0.020601
v 0.059480 0.208823 0.024452
v 0.045048 -0.007332 0.045672
v 0.037473 0.208855 0.037596
v 0.043656 0.506952 0.043780
v 0.080665 0.471980 0.080789
v 0.105394 0.419641 0.105518
v 0.114078 0.357904 0.114201
v 0.105394 0.296166 0.105518
v 0.080665 0.243827 0.080789
v 0.045149 0.100762 0.045523
v 0.045199 0.154809 0.045448
v 0.045098 0.046715 0.045597
v 0.037596 0.181832 0.037782
v 0.037545 0.127785 0.037856
v 0.037495 0.073738 0.037931
v 0.037444 0.019692 0.038006
v 0.045308 0.208823 0.045431
v 0.023853 -0.007332 0.059513
v 0.019945 0.208855 0.049153
v 0.023292 0.506952 0.057233
v 0.043321 0.471980 0.105587
v 0.056704 0.419641 0.137897
v 0.061404 0.357904 0.149243
v 0.056704 0.296166 0.137897
v 0.043321 0.243827 0.105587
v 0.024004 0.100762 0.059414
v 0.024079 0.154809 0.059364
v 0.023929 0.046715 0.059463
v 0.019988 0.181832 0.049372
v 0.019913 0.127785 0.049421
v 0.019838 0.073738 0.049471
v 0.019762 0.019692 0.049521
v 0.024186 0.208823 0.059390
v -0.001024 -0.007332 0.064190
v -0.000670 0.208855 0.053123
v -0.000670 0.506952 0.061868
v -0.000670 0.471980 0.114207
v -0.000670 0.419641 0.149179
v -0.000670 0.357904 0.161459
v -0.000670 0.296166 0.149179
v -0.000670 0.243827 0.114207
v -0.000847 0.100762 0.064156
v -0.000759 0.154809 0.064139
v -0.000936 0.046715 0.064173
v -0.000714 0.181832 0.053341
v -0.000803 0.127785 0.053358
v -0.000891 0.073738 0.053376
v -0.000980 0.019692 0.053393
v -0.000670 0.208823 0.064203
v -0.025798 -0.007332 0.058991
v -0.021236 0.208855 0.048901
v -0.024582 0.506952 0.056981
v -0.044612 0.471980 0.105336
v -0.057995 0.419641 0.137645
v -0.062694 0.357904 0.148991
v -0.057995 0.296166 0.137645
v -0.044612 0.243827 0.105336
v -0.025621 0.100762 0.059027
v -0.025533 0.154809 0.059045
v -0.025710 0.046715 0.059009
v -0.021360 0.181832 0.049086
v -0.021449 0.127785 0.049068
v -0.021537 0.073738 0.049050
v -0.021625 0.019692 0.049032
v -0.025476 0.208823 0.059138
v -0.046696 -0.007332 0.044706
v -0.038620 0.208855 0.037131
v -0.044804 0.506952 0.043315
v -0.081813 0.471980 0.080324
v -0.106542 0.419641 0.105053
v -0.115225 0.357904 0.113736
v -0.106542 0.296166 0.105053
v -0.081813 0.243827 0.080324
v -0.046547 0.100762 0.044807
v -0.046472 0.154809 0.044858
v -0.046622 0.046715 0.044757
v -0.038806 0.181832 0.037254
v -0.038881 0.127785 0.037204
v -0.038955 0.073738 0.037153
v -0.039030 0.019692 0.037103
v -0.046455 0.208823 0.044966
v -0.000918 -0.007332 -0.001183
v -0.060537 -0.007332 0.023512
v -0.000918 0.170130 -0.001183
v -0.050177 0.208855 0.019604
v -0.058257 0.506952 0.022951
v -0.106612 0.471980 0.042980
v -0.138921 0.419641 0.056363
v -0.150267 0.357904 0.061062
v -0.138921 0.296166 0.056363
v -0.106612 0.243827 0.042980
v -0.060438 0.100762 0.023663
v -0.060388 0.154809 0.023738
v -0.060488 0.046715 0.023587
v -0.050396 0.181832 0.019647
v -0.050446 0.127785 0.019571
v -0.050495 0.073738 0.019496
v -0.050545 0.019692 0.019421
v -0.060414 0.208823 0.023844
v -0.065214 -0.007332 -0.001366
v -0.054147 0.208855 -0.001012
v -0.062892 0.506952 -0.001012
v -0.115231 0.471980 -0.001012
v -0.150203 0.419641 -0.001012
v -0.162483 0.357904 -0.001012
v -0.150203 0.296166 -0.001012
v -0.115231 0.243827 -0.001012
v -0.065180 0.100762 -0.001189
v -0.065163 0.154809 -0.001100
v -0.065197 0.046715 -0.001277
v -0.054366 0.181832 -0.001056
v -0.054383 0.127785 -0.001144
v -0.054400 0.073738 -0.001233
v -0.054417 0.019692 -0.001321
v -0.065228 0.208823 -0.001012
v -0.060015 -0.007332 -0.026139
v -0.049926 0.208855 -0.021577
v -0.000967 0.519232 -0.001298
v -0.058005 0.506952 -0.024924
v -0.106360 0.471980 -0.044953
v -0.138669 0.419641 -0.058336
v -0.150015 0.357904 -0.063036
v -0.138669 0.296166 -0.058336
v -0.106360 0.243827 -0.044953
v -0.060051 0.100762 -0.025963
v -0.060069 0.154809 -0.025874
v -0.060033 0.046715 -0.026051
v -0.050110 0.181832 -0.021702
v -0.050092 0.127785 -0.021790
v -0.050074 0.073738 -0.021878
v -0.050056 0.019692 -0.021967
v -0.060163 0.208823 -0.025817
v -0.045731 -0.007332 -0.047038
v -0.038155 0.208855 -0.038962
v -0.044339 0.506952 -0.045146
v -0.081348 0.471980 -0.082155
v -0.106077 0.419641 -0.106883
v -0.114760 0.357904 -0.115567
v -0.106077 0.296166 -0.106883
v -0.081348 0.243827 -0.082155
v -0.045832 0.100762 -0.046888
v -0.045882 0.154809 -0.046814
v -0.045781 0.046715 -0.046963
v -0.038278 0.181832 -0.039147
v -0.038228 0.127785 -0.039222
v -0.038177 0.073738 -0.039297
v -0.038127 0.019692 -0.039372
v -0.045990 0.208823 -0.046797
v -0.024536 -0.007332 -0.060879
v -0.020628 0.208855 -0.050519
v -0.023975 0.506952 -0.058598
v -0.044004 0.471980 -0.106953
v -0.057387 0.419641 -0.139263
v -0.062087 0.357904 -0.150608
v -0.057387 0.296166 -0.139262
v -0.044004 0.243827 -0.106953
v -0.024687 0.100762 -0.060779
v -0.024762 0.154809 -0.060730
v -0.024612 0.046715 -0.060829
v -0.020671 0.181832 -0.050737
v -0.020596 0.127785 -0.050787
v -0.020520 0.073738 -0.050837
v -0.020445 0.019692 -0.050886
v -0.024869 0.208823 -0.060756
v 0.000341 -0.007332 -0.065556
v -0.000013 0.208855 -0.054489
v -0.000013 0.506952 -0.063234
v -0.000013 0.471980 -0.115573
v -0.000013 0.419641 -0.150544
v -0.000013 0.357904 -0.162825
v -0.000013 0.296166 -0.150544
v -0.000013 0.243827 -0.115573
v 0.000164 0.100762 -0.065521
v 0.000076 0.154809 -0.065504
v 0.000253 0.046715 -0.065539
v 0.000032 0.181832 -0.054707
v 0.000120 0.127785 -0.054724
v 0.000209 0.073738 -0.054741
v 0.000297 0.019692 -0.054758
v -0.000013 0.208823 -0.065569
v 0.025115 -0.007332 -0.060356
v 0.020553 0.208855 -0.050267
v 0.023900 0.506952 -0.058347
v 0.043929 0.471980 -0.106701
v 0.057312 0.419641 -0.139011
v 0.062011 0.357904 -0.150356
v 0.057312 0.296166 -0.139011
v 0.043929 0.243827 -0.106701
v 0.024939 0.100762 -0.060392
v 0.024850 0.154809 -0.060410
v 0.025027 0.046715 -0.060374
v 0.020677 0.181832 -0.050452
v 0.020766 0.127785 -0.050434
v 0.020854 0.073738 -0.050416
v 0.020942 0.019692 -0.050398
v 0.024793 0.208823 -0.060504
v 0.046013 -0.007332 -0.046072
v 0.037937 0.208855 -0.038497
v 0.044121 0.506952 -0.044681
v 0.081130 0.471980 -0.081690
v 0.105859 0.419641 -0.106418
v 0.114543 0.357904 -0.115102
v 0.105859 0.296166 -0.106418
v 0.081130 0.243827 -0.081690
v 0.045864 0.100762 -0.046173
v 0.045789 0.154809 -0.046223
v 0.045939 0.046715 -0.046122
v 0.038123 0.181832 -0.038620
v 0.038198 0.127785 -0.038569
v 0.038273 0.073738 -0.038519
v 0.038347 0.019692 -0.038468
v 0.045773 0.208823 -0.046332
v 0.059855 -0.007332 -0.024878
v 0.049494 0.208855 -0.020970
v 0.057574 0.506952 -0.024316
v 0.105929 0.471980 -0.044345
v 0.138238 0.419641 -0.057728
v 0.149584 0.357904 -0.062428
v 0.138238 0.296166 -0.057728
v 0.105929 0.243827 -0.044345
v 0.059755 0.100762 -0.025028
v 0.059706 0.154809 -0.025103
v 0.059805 0.046715 -0.024953
v 0.049713 0.181832 -0.021012
v 0.049763 0.127785 -0.020937
v 0.049813 0.073738 -0.020862
v 0.049862 0.019692 -0.020787
v 0.059731 0.208823 -0.025210
v 0.062210 0.506952 -0.000354
v 0.064497 0.100762 -0.000177
vn 0.7256 -0.6881 0.0021
vn 0.9273 -0.3743 0.0020
vn 0.8559 -0.3743 0.3568
vn 0.6696 -0.6881 0.2796
vn 0.9803 0.1974 0.0066
vn 0.6589 -0.7522 0.0042
vn 0.6071 -0.7522 0.2560
vn 0.9031 0.1974 0.3812
vn 0.8556 -0.5176 0.0092
vn 0.9999 0.0003 0.0112
vn 0.9195 0.0003 0.3930
vn 0.7869 -0.5176 0.3359
vn 0.9999 0.0003 0.0081
vn 1.0000 0.0002 0.0067
vn 0.9213 0.0002 0.3889
vn 0.9207 0.0003 0.3902
vn 0.0000 -1.0000 0.0000
vn 0.3328 -0.9430 0.0014
vn 0.3069 -0.9430 0.1286
vn 0.9999 0.0003 0.0097
vn 0.9999 0.0002 0.0081
vn 0.9207 0.0002 0.3902
vn 0.9201 0.0003 0.3916
vn 0.4024 0.9155 -0.0003
vn 0.1475 0.9866 0.0696
vn 0.3718 0.9151 0.1559
vn -0.9269 0.3753 -0.0016
vn -0.8557 0.3753 -0.3562
vn 0.9999 0.0003 0.0095
vn 0.9202 0.0003 0.3915
vn 0.5778 -0.8162 0.0009
vn 0.5334 -0.8162 0.2220
vn 1.0000 0.0000 0.0020
vn 0.9231 0.0000 0.3846
vn 0.6885 0.1974 0.6978
vn 0.7023 0.0002 0.7118
vn 0.4079 -0.8162 0.4092
vn 0.7056 0.0000 0.7085
vn 0.7013 0.0003 0.7128
vn 0.7013 0.0002 0.7128
vn 0.6542 -0.3743 0.6571
vn 0.7002 0.0003 0.7139
vn 0.7003 0.0003 0.7138
vn 0.5116 -0.6881 0.5146
vn 0.4629 -0.7522 0.4688
vn 0.6991 0.0003 0.7150
vn 0.5984 -0.5176 0.6115
vn 0.2344 -0.9430 0.2363
vn 0.2811 0.9156 0.2875
vn -0.6543 0.3753 -0.6566
vn 0.3751 0.0003 0.9269
vn 0.3751 0.0002 0.9269
vn 0.3808 0.0000 0.9246
vn 0.3529 -0.3743 0.8575
vn 0.3737 0.0003 0.9275
vn 0.3738 0.0003 0.9275
vn 0.2757 -0.6881 0.6712
vn 0.2483 -0.7522 0.6103
vn 0.3690 0.1974 0.9082
vn 0.3722 0.0003 0.9281
vn 0.3189 -0.5176 0.7939
vn 0.3764 0.0002 0.9264
vn 0.1261 -0.9430 0.3080
vn -0.0021 0.9999 -0.0088
vn 0.1498 0.9156 0.3731
vn -0.3532 0.3753 -0.8570
vn 0.2202 -0.8162 0.5341
vn -0.0097 0.0003 0.9999
vn -0.0095 0.0003 0.9999
vn -0.0020 -0.3743 0.9273
vn -0.0021 -0.6881 0.7256
vn -0.0042 -0.7522 0.6589
vn -0.0066 0.1974 0.9803
vn -0.0112 0.0003 0.9999
vn -0.0092 -0.5176 0.8556
vn -0.0067 0.0002 1.0000
vn -0.0081 0.0003 0.9999
vn -0.0014 -0.9430 0.3328
vn -0.0081 0.0002 0.9999
vn -0.0017 0.9159 0.4013
vn 0.0016 0.3753 -0.9269
vn -0.0009 -0.8162 0.5778
vn -0.0020 0.0000 1.0000
vn -0.3930 0.0003 0.9195
vn -0.3359 -0.5176 0.7869
vn -0.3889 0.0002 0.9213
vn -0.3902 0.0003 0.9207
vn -0.1286 -0.9430 0.3069
vn -0.2560 -0.7522 0.6071
vn -0.3902 0.0002 0.9207
vn -0.3916 0.0003 0.9201
vn -0.1552 0.9158 0.3705
vn -0.2796 -0.6881 0.6696
vn 0.3562 0.3753 -0.8557
vn -0.3915 0.0003 0.9202
vn -0.2220 -0.8162 0.5334
vn -0.3812 0.1974 0.9031
vn -0.3846 0.0000 0.9231
vn -0.3568 -0.3743 0.8559
vn -0.2363 -0.9430 0.2344
vn -0.4688 -0.7522 0.4629
vn -0.7128 0.0002 0.7013
vn -0.7139 0.0003 0.7002
vn -0.2855 0.9156 0.2832
vn -0.5146 -0.6881 0.5116
vn 0.6566 0.3753 -0.6543
vn -0.7138 0.0003 0.7003
vn -0.7150 0.0003 0.6991
vn -0.4092 -0.8162 0.4079
vn -0.6978 0.1974 0.6885
vn -0.7118 0.0002 0.7023
vn -0.7085 0.0000 0.7056
vn -0.7128 0.0003 0.7013
vn -0.6571 -0.3743 0.6542
vn -0.6115 -0.5176 0.5984
vn -0.6712 -0.6881 0.2757
vn -0.3080 -0.9430 0.1261
vn -0.3725 0.9154 0.1525
vn 0.8570 0.3753 -0.3532
vn -0.9275 0.0003 0.3738
vn -0.9281 0.0003 0.3722
vn -0.5341 -0.8162 0.2202
vn -0.9082 0.1974 0.3690
vn -0.9264 0.0002 0.3764
vn -0.9246 0.0000 0.3808
vn -0.9269 0.0003 0.3751
vn -0.9269 0.0002 0.3751
vn -0.8575 -0.3743 0.3529
vn -0.9275 0.0003 0.3737
vn -0.6103 -0.7522 0.2483
vn -0.7939 -0.5176 0.3189
vn -0.9999 0.0003 -0.0095
vn -0.9999 0.0003 -0.0112
vn -0.5778 -0.8162 -0.0009
vn 0.9269 0.3753 0.0016
vn -0.9803 0.1974 -0.0066
vn -1.0000 0.0002 -0.0067
vn -1.0000 0.0000 -0.0020
vn -0.9999 0.0003 -0.0081
vn -0.9999 0.0002 -0.0081
vn -0.9273 -0.3743 -0.0020
vn -0.9999 0.0003 -0.0097
vn -0.7256 -0.6881 -0.0021
vn -0.6589 -0.7522 -0.0042
vn -0.8556 -0.5176 -0.0092
vn -0.3328 -0.9430 -0.0014
vn -0.4028 0.9153 -0.0017
vn -0.9031 0.1974 -0.3812
vn -0.9213 0.0002 -0.3889
vn -0.5334 -0.8162 -0.2220
vn -0.9231 0.0000 -0.3846
vn -0.9207 0.0003 -0.3902
vn -0.9207 0.0002 -0.3902
vn -0.8559 -0.3743 -0.3568
vn -0.9201 0.0003 -0.3916
vn -0.9202 0.0003 -0.3915
vn -0.6696 -0.6881 -0.2796
vn -0.6071 -0.7522 -0.2560
vn -0.9195 0.0003 -0.3930
vn -0.7869 -0.5176 -0.3359
vn -0.3069 -0.9430 -0.1286
vn -0.3717 0.9151 -0.1559
vn 0.8557 0.3753 0.3562
vn -0.7013 0.0003 -0.7128
vn -0.7013 0.0002 -0.7128
vn -0.7056 0.0000 -0.7085
vn -0.6542 -0.3743 -0.6571
vn -0.7002 0.0003 -0.7139
vn -0.7003 0.0003 -0.7138
vn -0.5116 -0.6881 -0.5146
vn -0.4629 -0.7522 -0.4688
vn -0.6885 0.1974 -0.6978
vn -0.6991 0.0003 -0.7150
vn -0.5984 -0.5176 -0.6115
vn -0.7023 0.0002 -0.7118
vn -0.2344 -0.9430 -0.2363
vn -0.2838 0.9151 -0.2863
vn 0.6543 0.3753 0.6566
vn -0.4079 -0.8162 -0.4092
vn -0.3737 0.0003 -0.9275
vn -0.3738 0.0003 -0.9275
vn -0.3529 -0.3743 -0.8575
vn -0.2757 -0.6881 -0.6712
vn -0.2483 -0.7522 -0.6103
vn -0.3690 0.1974 -0.9082
vn -0.3722 0.0003 -0.9281
vn -0.3189 -0.5176 -0.7939
vn -0.3764 0.0002 -0.9264
vn -0.3751 0.0003 -0.9269
vn -0.1261 -0.9430 -0.3080
vn -0.3751 0.0002 -0.9269
vn -0.1525 0.9152 -0.3731
vn 0.3532 0.3753 0.8570
vn -0.2202 -0.8162 -0.5341
vn -0.3808 0.0000 -0.9246
vn 0.0042 -0.7522 -0.6589
vn 0.0066 0.1974 -0.9803
vn 0.0112 0.0003 -0.9999
vn 0.0092 -0.5176 -0.8556
vn 0.0067 0.0002 -1.0000
vn 0.0081 0.0003 -0.9999
vn 0.0014 -0.9430 -0.3328
vn 0.0081 0.0002 -0.9999
vn 0.0097 0.0003 -0.9999
vn 0.0019 0.9153 -0.4028
vn 0.0021 -0.6881 -0.7256
vn -0.0016 0.3753 0.9269
vn 0.0095 0.0003 -0.9999
vn 0.0009 -0.8162 -0.5778
vn 0.0020 0.0000 -1.0000
vn 0.0020 -0.3743 -0.9273
vn 0.3359 -0.5176 -0.7869
vn 0.1286 -0.9430 -0.3069
vn 0.2560 -0.7522 -0.6071
vn 0.3902 0.0002 -0.9207
vn 0.3916 0.0003 -0.9201
vn 0.1558 0.9154 -0.3711
vn 0.2796 -0.6881 -0.6696
vn -0.3562 0.3753 0.8557
vn 0.3915 0.0003 -0.9202
vn 0.3930 0.0003 -0.9195
vn 0.2220 -0.8162 -0.5334
vn 0.3812 0.1974 -0.9031
vn 0.3889 0.0002 -0.9213
vn 0.3846 0.0000 -0.9231
vn 0.3902 0.0003 -0.9207
vn 0.3568 -0.3743 -0.8559
vn 0.2857 0.9156 -0.2829
vn 0.5146 -0.6881 -0.5116
vn 0.2363 -0.9430 -0.2344
vn -0.6566 0.3753 0.6543
vn 0.7138 0.0003 -0.7003
vn 0.7150 0.0003 -0.6991
vn 0.4092 -0.8162 -0.4079
vn 0.6978 0.1974 -0.6885
vn 0.7118 0.0002 -0.7023
vn 0.7085 0.0000 -0.7056
vn 0.7128 0.0003 -0.7013
vn 0.7128 0.0002 -0.7013
vn 0.6571 -0.3743 -0.6542
vn 0.7139 0.0003 -0.7002
vn 0.4688 -0.7522 -0.4629
vn 0.6115 -0.5176 -0.5984
vn 0.3717 0.9154 -0.1541
vn -0.8570 0.3753 0.3532
vn 0.9275 0.0003 -0.3738
vn 0.9281 0.0003 -0.3722
vn 0.5341 -0.8162 -0.2202
vn 0.9082 0.1974 -0.3690
vn 0.9264 0.0002 -0.3764
vn 0.9246 0.0000 -0.3808
vn 0.9269 0.0003 -0.3751
vn 0.9269 0.0002 -0.3751
vn 0.8575 -0.3743 -0.3529
vn 0.9275 0.0003 -0.3737
vn 0.6712 -0.6881 -0.2757
vn 0.6103 -0.7522 -0.2483
vn 0.7939 -0.5176 -0.3189
vn 0.3080 -0.9430 -0.1261
usemtl None
s 1
f 8//1 7//2 22//3 23//4
f 11//5 2//6 17//7 27//8
f 1//9 14//10 30//11 16//12
f 12//13 9//14 25//15 28//16
f 112//17 1//9 16//12
f 2//6 15//18 31//19 17//7
f 13//20 260//21 24//22 29//23
f 259//24 3//25 18//26
f 15//18 8//1 23//4 31//19
f 4//27 259//24 18//26 19//28
f 14//10 10//29 26//30 30//11
f 4//27 5//31 20//32 19//28
f 9//14 11//5 27//8 25//15
f 6//33 5//31 20//32 21//34
f 260//21 12//13 28//16 24//22
f 7//2 6//33 21//34 22//3
f 10//29 13//20 29//23 26//30
f 25//15 27//8 43//35 41//36
f 21//34 20//32 36//37 37//38
f 24//22 28//16 44//39 40//40
f 22//3 21//34 37//38 38//41
f 26//30 29//23 45//42 42//43
f 23//4 22//3 38//41 39//44
f 27//8 17//7 33//45 43//35
f 16//12 30//11 46//46 32//47
f 28//16 25//15 41//36 44//39
f 112//17 16//12 32//47
f 17//7 31//19 47//48 33//45
f 29//23 24//22 40//40 45//42
f 18//26 3//25 34//49
f 31//19 23//4 39//44 47//48
f 19//28 18//26 34//49 35//50
f 30//11 26//30 42//43 46//46
f 19//28 20//32 36//37 35//50
f 40//40 44//39 60//51 56//52
f 38//41 37//38 53//53 54//54
f 42//43 45//42 61//55 58//56
f 39//44 38//41 54//54 55//57
f 43//35 33//45 49//58 59//59
f 32//47 46//46 62//60 48//61
f 44//39 41//36 57//62 60//51
f 112//17 32//47 48//61
f 33//45 47//48 63//63 49//58
f 45//42 40//40 56//52 61//55
f 34//49 3//25 148//64 50//65
f 47//48 39//44 55//57 63//63
f 35//50 34//49 50//65 51//66
f 46//46 42//43 58//56 62//60
f 35//50 36//37 52//67 51//66
f 41//36 43//35 59//59 57//62
f 37//38 36//37 52//67 53//53
f 58//56 61//55 77//68 74//69
f 55//57 54//54 70//70 71//71
f 59//59 49//58 65//72 75//73
f 48//61 62//60 78//74 64//75
f 60//51 57//62 73//76 76//77
f 112//17 48//61 64//75
f 49//58 63//63 79//78 65//72
f 61//55 56//52 72//79 77//68
f 50//65 148//64 66//80
f 63//63 55//57 71//71 79//78
f 51//66 50//65 66//80 67//81
f 62//60 58//56 74//69 78//74
f 51//66 52//67 68//82 67//81
f 57//62 59//59 75//73 73//76
f 53//53 52//67 68//82 69//83
f 56//52 60//51 76//77 72//79
f 54//54 53//53 69//83 70//70
f 64//75 78//74 94//84 80//85
f 76//77 73//76 89//86 92//87
f 112//17 64//75 80//85
f 65//72 79//78 95//88 81//89
f 77//68 72//79 88//90 93//91
f 66//80 148//64 82//92
f 79//78 71//71 87//93 95//88
f 67//81 66//80 82//92 83//94
f 78//74 74//69 90//95 94//84
f 67//81 68//82 84//96 83//94
f 73//76 75//73 91//97 89//86
f 69//83 68//82 84//96 85//98
f 72//79 76//77 92//87 88//90
f 70//70 69//83 85//98 86//99
f 74//69 77//68 93//91 90//95
f 71//71 70//70 86//99 87//93
f 75//73 65//72 81//89 91//97
f 81//89 95//88 111//100 97//101
f 93//91 88//90 104//102 109//103
f 82//92 148//64 98//104
f 95//88 87//93 103//105 111//100
f 83//94 82//92 98//104 99//106
f 94//84 90//95 106//107 110//108
f 83//94 84//96 100//109 99//106
f 89//86 91//97 107//110 105//111
f 85//98 84//96 100//109 101//112
f 88//90 92//87 108//113 104//102
f 86//99 85//98 101//112 102//114
f 90//95 93//91 109//103 106//107
f 87//93 86//99 102//114 103//105
f 91//97 81//89 97//101 107//110
f 80//85 94//84 110//108 96//115
f 92//87 89//86 105//111 108//113
f 112//17 80//85 96//115
f 111//100 103//105 121//116 129//117
f 99//106 98//104 116//118 117//119
f 110//108 106//107 124//120 128//121
f 99//106 100//109 118//122 117//119
f 105//111 107//110 125//123 123//124
f 101//112 100//109 118//122 119//125
f 104//102 108//113 126//126 122//127
f 102//114 101//112 119//125 120//128
f 106//107 109//103 127//129 124//120
f 103//105 102//114 120//128 121//116
f 107//110 97//101 115//130 125//123
f 96//115 110//108 128//121 113//131
f 108//113 105//111 123//124 126//126
f 112//17 96//115 113//131
f 97//101 111//100 129//117 115//130
f 109//103 104//102 122//127 127//129
f 98//104 148//64 116//118
f 128//121 124//120 140//132 144//133
f 117//119 118//122 134//134 133//135
f 123//124 125//123 141//136 139//137
f 119//125 118//122 134//134 135//138
f 122//127 126//126 142//139 138//140
f 120//128 119//125 135//138 136//141
f 124//120 127//129 143//142 140//132
f 121//116 120//128 136//141 137//143
f 125//123 115//130 131//144 141//136
f 113//131 128//121 144//133 130//145
f 126//126 123//124 139//137 142//139
f 112//17 113//131 130//145
f 115//130 129//117 145//146 131//144
f 127//129 122//127 138//140 143//142
f 116//118 148//64 132//147
f 129//117 121//116 137//143 145//146
f 117//119 116//118 132//147 133//135
f 139//137 141//136 158//148 156//149
f 135//138 134//134 151//150 152//151
f 138//140 142//139 159//152 155//153
f 136//141 135//138 152//151 153//154
f 140//132 143//142 160//155 157//156
f 137//143 136//141 153//154 154//157
f 141//136 131//144 147//158 158//148
f 130//145 144//133 161//159 146//160
f 142//139 139//137 156//149 159//152
f 112//17 130//145 146//160
f 131//144 145//146 162//161 147//158
f 143//142 138//140 155//153 160//155
f 132//147 148//64 149//162
f 145//146 137//143 154//157 162//161
f 133//135 132//147 149//162 150//163
f 144//133 140//132 157//156 161//159
f 133//135 134//134 151//150 150//163
f 155//153 159//152 175//164 171//165
f 153//154 152//151 168//166 169//167
f 157//156 160//155 176//168 173//169
f 154//157 153//154 169//167 170//170
f 158//148 147//158 164//171 174//172
f 146//160 161//159 177//173 163//174
f 159//152 156//149 172//175 175//164
f 112//17 146//160 163//174
f 147//158 162//161 178//176 164//171
f 160//155 155//153 171//165 176//168
f 149//162 148//64 165//177
f 162//161 154//157 170//170 178//176
f 150//163 149//162 165//177 166//178
f 161//159 157//156 173//169 177//173
f 150//163 151//150 167//179 166//178
f 156//149 158//148 174//172 172//175
f 152//151 151//150 167//179 168//166
f 173//169 176//168 192//180 189//181
f 170//170 169//167 185//182 186//183
f 174//172 164//171 180//184 190//185
f 163//174 177//173 193//186 179//187
f 175//164 172//175 188//188 191//189
f 112//17 163//174 179//187
f 164//171 178//176 194//190 180//184
f 176//168 171//165 187//191 192//180
f 165//177 148//64 181//192
f 178//176 170//170 186//183 194//190
f 166//178 165//177 181//192 182//193
f 177//173 173//169 189//181 193//186
f 166//178 167//179 183//194 182//193
f 172//175 174//172 190//185 188//188
f 168//166 167//179 183//194 184//195
f 171//165 175//164 191//189 187//191
f 169//167 168//166 184//195 185//182
f 190//185 180//184 196//196 206//197
f 179//187 193//186 209//198 195//199
f 191//189 188//188 204//200 207//201
f 112//17 179//187 195//199
f 180//184 194//190 210//202 196//196
f 192//180 187//191 203//203 208//204
f 181//192 148//64 197//205
f 194//190 186//183 202//206 210//202
f 182//193 181//192 197//205 198//207
f 193//186 189//181 205//208 209//198
f 182//193 183//194 199//209 198//207
f 188//188 190//185 206//197 204//200
f 184//195 183//194 199//209 200//210
f 187//191 191//189 207//201 203//203
f 185//182 184//195 200//210 201//211
f 189//181 192//180 208//204 205//208
f 186//183 185//182 201//211 202//206
f 112//17 195//199 211//212
f 196//196 210//202 226//213 212//214
f 208//204 203//203 219//215 224//216
f 197//205 148//64 213//217
f 210//202 202//206 218//218 226//213
f 198//207 197//205 213//217 214//219
f 209//198 205//208 221//220 225//221
f 198//207 199//209 215//222 214//219
f 204//200 206//197 222//223 220//224
f 200//210 199//209 215//222 216//225
f 203//203 207//201 223//226 219//215
f 201//211 200//210 216//225 217//227
f 205//208 208//204 224//216 221//220
f 202//206 201//211 217//227 218//218
f 206//197 196//196 212//214 222//223
f 195//199 209//198 225//221 211//212
f 207//201 204//200 220//224 223//226
f 213//217 148//64 229//228
f 226//213 218//218 234//229 242//230
f 214//219 213//217 229//228 230//231
f 225//221 221//220 237//232 241//233
f 214//219 215//222 231//234 230//231
f 220//224 222//223 238//235 236//236
f 216//225 215//222 231//234 232//237
f 219//215 223//226 239//238 235//239
f 217//227 216//225 232//237 233//240
f 221//220 224//216 240//241 237//232
f 218//218 217//227 233//240 234//229
f 222//223 212//214 228//242 238//235
f 211//212 225//221 241//233 227//243
f 223//226 220//224 236//236 239//238
f 112//17 211//212 227//243
f 212//214 226//213 242//230 228//242
f 224//216 219//215 235//239 240//241
f 230//231 229//228 245//244 246//245
f 241//233 237//232 253//246 257//247
f 230//231 231//234 247//248 246//245
f 236//236 238//235 254//249 252//250
f 232//237 231//234 247//248 248//251
f 235//239 239//238 255//252 251//253
f 233//240 232//237 248//251 249//254
f 237//232 240//241 256//255 253//246
f 234//229 233//240 249//254 250//256
f 238//235 228//242 244//257 254//249
f 227//243 241//233 257//247 243//258
f 239//238 236//236 252//250 255//252
f 112//17 227//243 243//258
f 228//242 242//230 258//259 244//257
f 240//241 235//239 251//253 256//255
f 229//228 148//64 245//244
f 242//230 234//229 250//256 258//259
f 246//245 247//248 5//31 4//27
f 252//250 254//249 11//5 9//14
f 248//251 247//248 5//31 6//33
f 251//253 255//252 12//13 260//21
f 249//254 248//251 6//33 7//2
f 253//246 256//255 13//20 10//29
f 250//256 249//254 7//2 8//1
f 254//249 244//257 2//6 11//5
f 243//258 257//247 14//10 1//9
f 255//252 252//250 9//14 12//13
f 112//17 243//258 1//9
f 244//257 258//259 15//18 2//6
f 256//255 251//253 260//21 13//20
f 245//244 148//64 3//25 259//24
f 258//259 250//256 8//1 15//18
f 246//245 245//244 259//24 4//27
f 257//247 253//246 10//29 14//10
