# Blender v2.78 (sub 0) OBJ File: 'House-1.blend'
# www.blender.org
mtllib House-1.mtl
o Plane_Plane.001
v -9.000000 6.000000 5.000000
v 9.000000 6.000000 5.000000
v -9.000000 6.000000 -9.000000
v 9.000000 6.000000 -9.000000
v -9.584157 6.000000 -8.300000
v -9.000000 13.000000 -2.000000
v 9.000000 13.000000 -2.000000
v -9.000000 6.000000 -8.300000
v 9.000000 6.000000 -2.000000
v -9.000000 6.000000 -2.000000
v -9.584157 13.000000 -2.000000
v -9.584157 6.000000 5.000000
v 9.584157 13.000000 -2.000000
v 9.584157 6.000000 -9.000000
v -9.584157 6.000000 -9.000000
v 9.584157 6.000000 5.000000
v 9.584157 6.000000 -2.000000
v -9.584157 6.000000 -2.000000
v 9.000000 6.000000 -8.300000
v 9.584157 6.000000 -8.300000
v 9.000000 6.000000 4.300000
v 9.584157 6.000000 4.300000
v -9.000000 6.000000 4.300000
v -9.584157 6.000000 4.300000
v -9.000000 0.000000 -8.300000
v 9.000000 0.000000 -2.000000
v -9.000000 0.000000 -2.000000
v 9.000000 0.000000 -8.300000
v 9.000000 0.000000 4.300000
v -9.000000 0.000000 4.300000
v -1.500000 6.000000 5.000000
v 1.500000 6.000000 5.000000
v 1.500000 6.000000 -9.000000
v -1.500000 6.000000 -9.000000
v 1.500000 13.000000 -2.000000
v -1.500000 13.000000 -2.000000
v -1.500000 6.000000 -8.300000
v 1.500000 6.000000 -8.300000
v 1.500000 6.000000 4.300000
v -1.500000 6.000000 4.300000
v -1.500000 0.000000 -8.300000
v 1.500000 0.000000 -8.300000
v 1.500000 0.000000 4.300000
v -1.500000 0.000000 4.300000
v 3.625000 6.000000 5.000000
v 6.875000 6.000000 5.000000
v 3.625000 6.000000 -8.300000
v 6.875000 6.000000 -8.300000
v 3.625000 0.000000 -8.300000
v 6.875000 0.000000 -8.300000
v 6.875000 6.000000 -9.000000
v 3.624999 6.000000 -9.000000
v 6.875000 13.000000 -2.000000
v 3.624999 13.000000 -2.000000
v 6.875000 6.000000 4.300000
v 3.624999 6.000000 4.300000
v 6.875000 0.000000 4.300000
v 3.624999 0.000000 4.300000
v -3.625000 6.000000 -9.000000
v -6.875000 6.000000 -9.000000
v -3.625000 13.000000 -2.000000
v -6.875000 13.000000 -2.000000
v -3.625000 6.000000 4.300000
v -6.875000 6.000000 4.300000
v -3.625000 0.000000 4.300000
v -6.875000 0.000000 4.300000
v -6.875000 6.000000 5.000000
v -3.625000 6.000000 5.000000
v -6.875000 6.000000 -8.300000
v -3.625000 6.000000 -8.300000
v -6.875000 0.000000 -8.300000
v -3.625000 0.000000 -8.300000
v 9.000000 1.500000 4.300001
v 9.000000 4.500000 4.300001
v -9.000000 4.500000 4.300000
v -9.000000 1.500000 4.300000
v 9.000000 1.500000 -8.300000
v 9.000000 4.500000 -8.300000
v 9.000000 4.500000 -2.000000
v 9.000000 1.500000 -2.000000
v -9.000000 1.500000 -2.000000
v -9.000000 4.500000 -2.000000
v -9.000000 4.500000 -8.300000
v -9.000000 1.500000 -8.300000
v -1.500000 4.500000 -8.300000
v -1.500000 1.500000 -8.300000
v 1.500000 4.500000 -8.300000
v 1.500000 1.500000 -8.300000
v 1.500000 4.500000 4.300001
v 1.500000 1.500000 4.300001
v -1.500000 4.500000 4.300001
v -1.500000 1.500000 4.300001
v 6.875000 4.500000 4.300001
v 6.875000 1.500000 4.300001
v 3.624999 4.500000 4.300001
v 3.624999 1.500000 4.300001
v 3.625000 4.500000 -8.300000
v 3.625000 1.500000 -8.300000
v 6.875000 4.500000 -8.300000
v 6.875000 1.500000 -8.300000
v -6.875000 4.500000 -8.300000
v -6.875000 1.500000 -8.300000
v -3.625000 4.500000 -8.300000
v -3.625000 1.500000 -8.300000
v -3.625000 4.500000 4.300001
v -3.625000 1.500000 4.300001
v -6.875000 4.500000 4.300001
v -6.875000 1.500000 4.300001
v 1.500000 0.000000 3.800000
v -1.500000 0.000000 3.800000
v 1.500000 1.500000 3.800001
v -1.500000 1.500000 3.800001
v 1.500000 4.500000 3.800001
v -1.500000 4.500000 3.800001
v 6.875000 4.500000 4.000000
v 6.875000 1.500000 4.000000
v 3.624999 4.500000 4.000000
v 3.624999 1.500000 4.000000
v -3.625000 4.500000 4.000000
v -3.625000 1.500000 4.000000
v -6.875000 4.500000 4.000000
v -6.875000 1.500000 4.000000
v -1.500000 4.500000 -8.000000
v -1.500000 1.500000 -8.000000
v 1.500000 4.500000 -8.000000
v 1.500000 1.500000 -8.000000
v 3.625000 4.500000 -8.000000
v 3.625000 1.500000 -8.000000
v 6.875000 4.500000 -8.000000
v 6.875000 1.500000 -8.000000
v -6.875000 4.500000 -8.000000
v -6.875000 1.500000 -8.000000
v -3.625000 4.500000 -8.000000
v -3.625000 1.500000 -8.000000
vt 0.2334 0.8626
vt 0.2591 0.8626
vt 0.2590 0.9819
vt 0.2334 0.9819
vt 0.3251 0.3037
vt 0.4280 0.3037
vt 0.4280 0.3133
vt 0.3251 0.3133
vt 0.2334 0.7432
vt 0.2591 0.7432
vt 0.0420 0.8626
vt 0.0420 0.9819
vt 0.0350 0.9819
vt 0.0350 0.8626
vt 0.5309 0.0097
vt 0.5309 0.0002
vt 0.5423 0.0002
vt 0.5423 0.0097
vt 0.3251 0.0097
vt 0.3136 0.0097
vt 0.3136 0.0002
vt 0.3251 0.0002
vt 0.4280 0.0097
vt 0.4280 0.0002
vt 0.5309 0.3037
vt 0.5309 0.3133
vt 0.3136 0.3037
vt 0.3136 0.3133
vt 0.2661 0.8626
vt 0.2661 0.9819
vt 0.0420 0.7432
vt 0.0350 0.7432
vt 0.2661 0.7432
vt 0.5423 0.3037
vt 0.5423 0.3133
vt 0.5423 0.0444
vt 0.5309 0.0444
vt 0.3136 0.2690
vt 0.3251 0.2690
vt 0.0126 0.4243
vt 0.1259 0.4223
vt 0.1259 0.4243
vt 0.1259 0.5376
vt 0.2393 0.4223
vt 0.2393 0.4243
vt 0.3543 0.4223
vt 0.3534 0.5360
vt 0.2396 0.5370
vt 0.2396 0.5350
vt 0.4102 0.5370
vt 0.4671 0.5370
vt 0.1089 0.1640
vt 0.0798 0.1640
vt 0.0798 0.1434
vt 0.1089 0.1434
vt 0.5000 0.1640
vt 0.4135 0.1640
vt 0.4135 0.1434
vt 0.5000 0.1434
vt 0.8337 0.1640
vt 0.7472 0.1640
vt 0.7472 0.1434
vt 0.8337 0.1434
vt 0.5292 0.1640
vt 0.5292 0.1434
vt 0.9202 0.1640
vt 0.9202 0.1434
vt 0.3270 0.1640
vt 0.3270 0.1434
vt 0.6734 0.1640
vt 0.6442 0.1640
vt 0.6442 0.1434
vt 0.6734 0.1434
vt 0.6030 0.1640
vt 0.6030 0.1434
vt 0.2531 0.1640
vt 0.2240 0.1640
vt 0.2240 0.1434
vt 0.2531 0.1434
vt 0.5150 0.1389
vt 0.4703 0.1389
vt 0.4703 0.1347
vt 0.5150 0.1347
vt 0.3136 0.0975
vt 0.3251 0.0975
vt 0.3251 0.1322
vt 0.3136 0.1322
vt 0.3251 0.1812
vt 0.3136 0.1812
vt 0.5423 0.2159
vt 0.5309 0.2159
vt 0.5309 0.1812
vt 0.5423 0.1812
vt 0.5309 0.1322
vt 0.5423 0.1322
vt 0.1068 0.7432
vt 0.1324 0.7432
vt 0.1324 0.8626
vt 0.1068 0.8626
vt 0.1686 0.7432
vt 0.1686 0.8626
vt 0.1324 0.9819
vt 0.1068 0.9819
vt 0.1686 0.9819
vt 0.5309 0.2690
vt 0.5423 0.2690
vt 0.2978 0.1640
vt 0.2978 0.1434
vt 0.5738 0.1640
vt 0.5738 0.1434
vt 0.3251 0.2159
vt 0.3136 0.2159
vt 0.1942 0.7432
vt 0.1942 0.8626
vt 0.1942 0.9819
vt 0.0676 0.8626
vt 0.0676 0.9819
vt 0.0676 0.7432
vt 0.3251 0.0444
vt 0.3136 0.0444
vt 0.7180 0.1640
vt 0.7180 0.1434
vt 0.1828 0.1640
vt 0.1536 0.1640
vt 0.1536 0.1434
vt 0.1828 0.1434
vt 0.5309 0.0975
vt 0.5423 0.0975
vt 0.1536 0.2258
vt 0.1089 0.2258
vt 0.1089 0.2052
vt 0.1536 0.2052
vt 0.6032 0.0704
vt 0.6522 0.0704
vt 0.6522 0.0753
vt 0.6032 0.0753
vt 0.1828 0.2258
vt 0.1828 0.2052
vt 0.7180 0.2258
vt 0.6734 0.2258
vt 0.6734 0.2052
vt 0.7180 0.2052
vt 0.4480 0.0862
vt 0.4970 0.0862
vt 0.4970 0.0911
vt 0.4480 0.0911
vt 0.7472 0.2258
vt 0.7472 0.2052
vt 0.5738 0.2258
vt 0.5292 0.2258
vt 0.5292 0.2052
vt 0.5738 0.2052
vt 0.5460 0.0862
vt 0.5460 0.0911
vt 0.6030 0.2258
vt 0.6030 0.2052
vt 0.2978 0.2258
vt 0.2531 0.2258
vt 0.2531 0.2052
vt 0.2978 0.2052
vt 0.6243 0.0318
vt 0.6488 0.0318
vt 0.6488 0.0399
vt 0.6243 0.0399
vt 0.3270 0.2258
vt 0.3270 0.2052
vt 0.2240 0.2258
vt 0.2240 0.2052
vt 0.4291 0.1389
vt 0.4291 0.1347
vt 0.6442 0.2258
vt 0.6442 0.2052
vt 0.4970 0.0806
vt 0.4480 0.0806
vt 0.4480 0.0757
vt 0.4970 0.0757
vt 0.4135 0.2258
vt 0.4135 0.2052
vt 0.9202 0.2258
vt 0.8337 0.2258
vt 0.8337 0.2052
vt 0.9202 0.2052
vt 0.5000 0.2258
vt 0.5000 0.2052
vt 0.0798 0.2258
vt 0.0798 0.2052
vt 0.9257 0.8560
vt 0.8767 0.8560
vt 0.8767 0.8315
vt 0.9257 0.8315
vt 0.9298 0.9544
vt 0.8767 0.9544
vt 0.8767 0.9054
vt 0.9298 0.9054
vt 0.9791 0.8805
vt 0.9260 0.8805
vt 0.9260 0.8315
vt 0.9791 0.8315
vt 0.9257 0.9050
vt 0.8767 0.9050
vt 0.3845 0.1389
vt 0.3845 0.1347
vt 0.5263 0.0318
vt 0.5753 0.0318
vt 0.5753 0.0399
vt 0.5263 0.0399
vt 0.5011 0.0704
vt 0.5501 0.0704
vt 0.5501 0.0753
vt 0.5011 0.0753
vt 0.5015 0.0399
vt 0.4525 0.0399
vt 0.4525 0.0318
vt 0.5015 0.0318
vt 0.3433 0.1389
vt 0.3433 0.1347
vt 0.4480 0.0704
vt 0.4480 0.0753
vt 0.5260 0.0399
vt 0.5260 0.0318
vt 0.9301 0.9054
vt 0.9832 0.9054
vt 0.9832 0.9544
vt 0.9301 0.9544
vt 0.7419 0.8970
vt 0.7950 0.8970
vt 0.7950 0.9460
vt 0.7419 0.9460
vt 0.7953 0.8970
vt 0.8443 0.8970
vt 0.8443 0.9460
vt 0.7953 0.9460
vt 0.4970 0.0858
vt 0.4480 0.0858
vt 0.4480 0.0809
vt 0.4970 0.0809
vt 0.5950 0.0862
vt 0.5950 0.0911
vt 0.6522 0.0858
vt 0.5991 0.0858
vt 0.5991 0.0809
vt 0.6522 0.0809
vt 0.6440 0.0862
vt 0.6440 0.0911
vt 0.5991 0.0806
vt 0.5501 0.0806
vt 0.5501 0.0757
vt 0.5991 0.0757
vt 0.6522 0.0806
vt 0.6522 0.0757
vt 0.5501 0.0858
vt 0.5501 0.0809
vn 0.0000 0.7071 -0.7071
vn 0.0000 -1.0000 0.0000
vn 0.0000 0.7071 0.7071
vn 1.0000 0.0000 0.0000
vn -1.0000 0.0000 0.0000
vn 0.0000 -0.0000 1.0000
vn 0.0000 0.0000 -1.0000
vn 0.0000 1.0000 0.0000
usemtl Material
s off
f 53/1/1 7/2/1 4/3/1 51/4/1
f 21/5/2 9/6/2 17/7/2 22/8/2
f 46/9/3 2/10/3 7/2/3 53/1/3
f 6/11/1 3/12/1 15/13/1 11/14/1
f 8/15/2 5/16/2 15/17/2 3/18/2
f 23/19/2 1/20/2 12/21/2 24/22/2
f 10/23/2 18/24/2 5/16/2 8/15/2
f 9/6/2 19/25/2 20/26/2 17/7/2
f 2/27/2 21/5/2 22/8/2 16/28/2
f 4/3/1 7/2/1 13/29/1 14/30/1
f 1/31/3 6/11/3 11/14/3 12/32/3
f 7/2/3 2/10/3 16/33/3 13/29/3
f 19/25/2 4/34/2 14/35/2 20/26/2
f 10/23/2 23/19/2 24/22/2 18/24/2
f 60/36/2 69/37/2 8/15/2 3/18/2
f 46/38/2 55/39/2 21/5/2 2/27/2
f 16/40/4 22/41/4 17/42/4 13/43/4
f 13/43/4 17/42/4 20/44/4 14/45/4
f 11/46/5 18/47/5 24/48/5 12/49/5
f 5/50/5 18/47/5 11/46/5 15/51/5
f 108/52/6 76/53/6 30/54/6 66/55/6
f 77/56/4 80/57/4 26/58/4 28/59/4
f 81/60/5 84/61/5 25/62/5 27/63/5
f 100/64/7 77/56/7 28/59/7 50/65/7
f 76/66/5 81/60/5 27/63/5 30/67/5
f 80/57/4 73/68/4 29/69/4 26/58/4
f 104/70/7 86/71/7 41/72/7 72/73/7
f 86/71/7 88/74/7 42/75/7 41/72/7
f 96/76/6 90/77/6 43/78/6 58/79/6
f 105/80/2 107/81/2 121/82/2 119/83/2
f 68/84/2 63/85/2 40/86/2 31/87/2
f 31/87/2 40/86/2 39/88/2 32/89/2
f 52/90/2 47/91/2 38/92/2 33/93/2
f 33/93/2 38/92/2 37/94/2 34/95/2
f 68/96/3 31/97/3 36/98/3 61/99/3
f 31/97/3 32/100/3 35/101/3 36/98/3
f 61/99/1 36/98/1 34/102/1 59/103/1
f 36/98/1 35/101/1 33/104/1 34/102/1
f 4/34/2 19/25/2 48/105/2 51/106/2
f 51/106/2 48/105/2 47/91/2 52/90/2
f 73/68/6 94/107/6 57/108/6 29/69/6
f 94/107/6 96/76/6 58/79/6 57/108/6
f 88/74/7 98/109/7 49/110/7 42/75/7
f 98/109/7 100/64/7 50/65/7 49/110/7
f 32/89/2 39/88/2 56/111/2 45/112/2
f 45/112/2 56/111/2 55/39/2 46/38/2
f 32/100/3 45/113/3 54/114/3 35/101/3
f 45/113/3 46/9/3 53/1/3 54/114/3
f 35/101/1 54/114/1 52/115/1 33/104/1
f 54/114/1 53/1/1 51/4/1 52/115/1
f 6/11/1 62/116/1 60/117/1 3/12/1
f 62/116/1 61/99/1 59/103/1 60/117/1
f 1/31/3 67/118/3 62/116/3 6/11/3
f 67/118/3 68/96/3 61/99/3 62/116/3
f 1/20/2 23/19/2 64/119/2 67/120/2
f 67/120/2 64/119/2 63/85/2 68/84/2
f 84/61/7 102/121/7 71/122/7 25/62/7
f 102/121/7 104/70/7 72/73/7 71/122/7
f 92/123/6 106/124/6 65/125/6 44/126/6
f 106/124/6 108/52/6 66/55/6 65/125/6
f 34/95/2 37/94/2 70/127/2 59/128/2
f 59/128/2 70/127/2 69/37/2 60/36/2
f 63/129/6 64/130/6 107/131/6 105/132/6
f 94/133/5 93/134/5 115/135/5 116/136/5
f 40/137/6 63/129/6 105/132/6 91/138/6
f 91/138/6 105/132/6 106/124/6 92/123/6
f 69/139/7 70/140/7 103/141/7 101/142/7
f 85/143/2 87/144/2 125/145/2 123/146/2
f 8/147/7 69/139/7 101/142/7 83/148/7
f 83/148/7 101/142/7 102/121/7 84/61/7
f 47/149/7 48/150/7 99/151/7 97/152/7
f 87/144/5 88/153/5 126/154/5 125/145/5
f 38/155/7 47/149/7 97/152/7 87/156/7
f 87/156/7 97/152/7 98/109/7 88/74/7
f 55/157/6 56/158/6 95/159/6 93/160/6
f 92/161/4 44/162/4 110/163/4 112/164/4
f 21/165/6 55/157/6 93/160/6 74/166/6
f 74/166/6 93/160/6 94/107/6 73/68/6
f 39/167/6 40/137/6 91/138/6 89/168/6
f 107/81/4 108/169/4 122/170/4 121/82/4
f 56/158/6 39/167/6 89/168/6 95/159/6
f 95/159/6 89/168/6 90/77/6 96/76/6
f 37/171/7 38/155/7 87/156/7 85/172/7
f 98/173/4 97/174/4 127/175/4 128/176/4
f 70/140/7 37/171/7 85/172/7 103/141/7
f 103/141/7 85/172/7 86/71/7 104/70/7
f 9/177/4 21/165/4 74/166/4 79/178/4
f 79/178/4 74/166/4 73/68/4 80/57/4
f 23/179/5 10/180/5 82/181/5 75/182/5
f 75/182/5 82/181/5 81/60/5 76/66/5
f 48/150/7 19/183/7 78/184/7 99/151/7
f 99/151/7 78/184/7 77/56/7 100/64/7
f 10/180/5 8/147/5 83/148/5 82/181/5
f 82/181/5 83/148/5 84/61/5 81/60/5
f 19/183/4 9/177/4 79/178/4 78/184/4
f 78/184/4 79/178/4 80/57/4 77/56/4
f 64/130/6 23/185/6 75/186/6 107/131/6
f 107/131/6 75/186/6 76/53/6 108/52/6
f 111/187/6 112/188/6 110/189/6 109/190/6
f 119/191/6 121/192/6 122/193/6 120/194/6
f 115/195/6 117/196/6 118/197/6 116/198/6
f 113/199/6 114/200/6 112/188/6 111/187/6
f 108/169/8 106/201/8 120/202/8 122/170/8
f 89/203/2 91/204/2 114/205/2 113/206/2
f 95/207/4 96/208/4 118/209/4 117/210/4
f 90/211/5 89/212/5 113/213/5 111/214/5
f 106/201/5 105/215/5 119/216/5 120/202/5
f 93/217/2 95/207/2 117/210/2 115/218/2
f 91/204/4 92/161/4 112/164/4 114/205/4
f 43/219/5 90/211/5 111/214/5 109/220/5
f 96/208/8 94/133/8 116/136/8 118/209/8
f 131/221/7 133/222/7 134/223/7 132/224/7
f 127/225/7 129/226/7 130/227/7 128/228/7
f 123/229/7 125/230/7 126/231/7 124/232/7
f 102/233/4 101/234/4 131/235/4 132/236/4
f 88/153/8 86/237/8 124/238/8 126/154/8
f 101/239/2 103/240/2 133/241/2 131/242/2
f 86/237/4 85/243/4 123/244/4 124/238/4
f 99/245/5 100/246/5 130/247/5 129/248/5
f 97/249/2 99/245/2 129/248/2 127/250/2
f 104/251/8 102/233/8 132/236/8 134/252/8
f 103/240/5 104/251/5 134/252/5 133/241/5
f 100/246/8 98/173/8 128/176/8 130/247/8
