# Blender v2.78 (sub 0) OBJ File: 'DirectionalLight.blend'
# www.blender.org
mtllib DirectionalLight.mtl
o Cone
v 0.136085 0.000844 0.091270
v 0.128119 0.578243 0.065007
v 0.128119 0.000844 0.065007
v 0.115181 0.578243 0.040803
v 0.115181 0.000844 0.040803
v 0.097770 0.578243 0.019588
v 0.097770 0.000844 0.019588
v 0.076555 0.578243 0.002177
v 0.076555 0.000844 0.002177
v 0.052351 0.578243 -0.010760
v 0.052351 0.000844 -0.010760
v 0.026088 0.578243 -0.018727
v 0.026088 0.000844 -0.018727
v -0.001225 0.578243 -0.021417
v -0.001225 0.000844 -0.021417
v -0.301225 0.553474 0.418583
v -0.301225 0.613474 0.418583
v -0.301225 0.553474 -0.181417
v -0.301225 0.613474 -0.181417
v 0.298775 0.553474 0.418583
v 0.298775 0.613474 0.418583
v 0.298775 0.553474 -0.181417
v 0.298775 0.613474 -0.181417
v 0.136085 0.578243 0.091270
v 0.138775 0.000844 0.118583
v 0.138775 0.578243 0.118583
v 0.136085 0.000844 0.145896
v 0.136085 0.578243 0.145896
v 0.128119 0.000844 0.172159
v 0.128119 0.578243 0.172159
v 0.115181 0.000844 0.196363
v 0.115181 0.578243 0.196363
v 0.097770 0.000844 0.217578
v 0.097770 0.578243 0.217578
v 0.076555 0.000844 0.234989
v 0.076555 0.578243 0.234989
v 0.052351 0.000844 0.247926
v 0.052351 0.578243 0.247926
v 0.026088 0.000844 0.255893
v 0.026088 0.578243 0.255893
v -0.001225 0.000844 0.258583
v -0.001225 0.578243 0.258583
v -0.028537 0.000844 0.255893
v -0.028537 0.578243 0.255893
v -0.054800 0.000844 0.247926
v -0.054800 0.578243 0.247926
v -0.079004 0.000844 0.234989
v -0.079004 0.578243 0.234989
v -0.100220 0.000844 0.217578
v -0.100220 0.578243 0.217578
v -0.117630 0.000844 0.196363
v -0.117630 0.578243 0.196363
v -0.130568 0.000844 0.172159
v -0.130568 0.578243 0.172159
v -0.138534 0.000844 0.145896
v -0.138534 0.578243 0.145896
v -0.141225 0.000844 0.118583
v -0.141225 0.578243 0.118583
v -0.138534 0.000844 0.091270
v -0.138534 0.578243 0.091270
v -0.130568 0.000844 0.065007
v -0.130568 0.578243 0.065007
v -0.117630 0.000844 0.040803
v -0.117630 0.578243 0.040803
v -0.100219 0.000844 0.019588
v -0.100219 0.578243 0.019588
v -0.079004 0.000844 0.002177
v -0.079004 0.578243 0.002177
v -0.054800 0.000844 -0.010760
v -0.054800 0.578243 -0.010760
v -0.028537 0.000844 -0.018727
v -0.028537 0.578243 -0.018727
v 0.115181 0.385777 0.040803
v 0.115181 0.193310 0.040803
v 0.097770 0.385777 0.019588
v 0.097770 0.193310 0.019588
v 0.076555 0.385777 0.002177
v 0.076555 0.193310 0.002177
v 0.052351 0.385777 -0.010760
v 0.052351 0.193310 -0.010760
v 0.026088 0.385777 -0.018727
v 0.026088 0.193310 -0.018727
v -0.001225 0.193310 -0.021417
v -0.001225 0.385777 -0.021417
v 0.128119 0.385777 0.065007
v 0.128119 0.193310 0.065007
v 0.136085 0.385777 0.091270
v 0.136085 0.193310 0.091270
v 0.138775 0.385777 0.118583
v 0.138775 0.193310 0.118583
v 0.136085 0.385777 0.145896
v 0.136085 0.193310 0.145896
v 0.128119 0.385777 0.172159
v 0.128119 0.193310 0.172159
v 0.115181 0.385777 0.196363
v 0.115181 0.193310 0.196363
v 0.097770 0.385777 0.217578
v 0.097770 0.193310 0.217578
v 0.076555 0.385777 0.234989
v 0.076555 0.193310 0.234989
v 0.052351 0.385777 0.247926
v 0.052351 0.193310 0.247926
v 0.026088 0.385777 0.255893
v 0.026088 0.193310 0.255893
v -0.001225 0.385777 0.258583
v -0.001225 0.193310 0.258583
v -0.028537 0.385777 0.255893
v -0.028537 0.193310 0.255893
v -0.054800 0.385777 0.247926
v -0.054800 0.193310 0.247926
v -0.079004 0.385777 0.234989
v -0.079004 0.193310 0.234989
v -0.100220 0.385777 0.217578
v -0.100220 0.193310 0.217578
v -0.117630 0.385777 0.196363
v -0.117630 0.193310 0.196363
v -0.130568 0.385777 0.172159
v -0.130568 0.193310 0.172159
v -0.138534 0.385777 0.145896
v -0.138534 0.193310 0.145896
v -0.141225 0.385777 0.118583
v -0.141225 0.193310 0.118583
v -0.138534 0.385777 0.091270
v -0.138534 0.193310 0.091270
v -0.130568 0.385777 0.065007
v -0.130568 0.193310 0.065007
v -0.117630 0.385777 0.040803
v -0.117630 0.193310 0.040803
v -0.100219 0.385777 0.019588
v -0.100219 0.193310 0.019588
v -0.079004 0.385777 0.002177
v -0.079004 0.193310 0.002177
v -0.054800 0.385777 -0.010760
v -0.054800 0.193310 -0.010760
v -0.028537 0.385777 -0.018727
v -0.028537 0.193310 -0.018727
vn 0.7071 0.0000 -0.7071
vn 0.5147 0.6857 -0.5147
vn 0.6052 0.6857 -0.4044
vn 0.8314 0.0000 -0.5556
vn 0.0000 0.0000 -1.0000
vn 0.0000 0.6857 -0.7279
vn 0.1420 0.6857 -0.7139
vn 0.1951 0.0000 -0.9808
vn 0.2785 0.6857 -0.6725
vn 0.3827 0.0000 -0.9239
vn 0.4044 0.6857 -0.6052
vn 0.5556 0.0000 -0.8314
vn -0.5773 -0.5773 0.5773
vn -0.5773 0.5773 0.5773
vn -0.5773 0.5773 -0.5773
vn -0.5773 -0.5773 -0.5773
vn 0.5773 0.5773 -0.5773
vn 0.5773 -0.5773 -0.5773
vn 0.5773 0.5773 0.5773
vn 0.5773 -0.5773 0.5773
vn 0.6725 0.6857 -0.2785
vn 0.9239 0.0000 -0.3827
vn 0.7139 0.6857 -0.1420
vn 0.9808 0.0000 -0.1951
vn 0.7279 0.6857 0.0000
vn 1.0000 0.0000 0.0000
vn 0.7139 0.6857 0.1420
vn 0.9808 0.0000 0.1951
vn 0.6725 0.6857 0.2785
vn 0.9239 0.0000 0.3827
vn 0.6052 0.6857 0.4044
vn 0.8314 0.0000 0.5556
vn 0.5147 0.6857 0.5147
vn 0.7071 0.0000 0.7071
vn 0.4044 0.6857 0.6052
vn 0.5556 0.0000 0.8314
vn 0.2785 0.6857 0.6725
vn 0.3827 0.0000 0.9239
vn 0.1420 0.6857 0.7139
vn 0.1951 0.0000 0.9808
vn 0.0000 0.6857 0.7279
vn 0.0000 0.0000 1.0000
vn -0.1420 0.6857 0.7139
vn -0.1951 0.0000 0.9808
vn -0.2785 0.6857 0.6725
vn -0.3827 0.0000 0.9239
vn -0.4044 0.6857 0.6052
vn -0.5556 0.0000 0.8314
vn -0.5147 0.6857 0.5147
vn -0.7071 0.0000 0.7071
vn -0.6052 0.6857 0.4044
vn -0.8314 0.0000 0.5556
vn -0.6725 0.6857 0.2785
vn -0.9239 0.0000 0.3827
vn -0.7139 0.6857 0.1420
vn -0.9808 0.0000 0.1951
vn -0.7279 0.6857 0.0000
vn -1.0000 0.0000 0.0000
vn -0.7139 0.6857 -0.1420
vn -0.9808 0.0000 -0.1951
vn -0.6725 0.6857 -0.2785
vn -0.9239 0.0000 -0.3827
vn -0.6052 0.6857 -0.4044
vn -0.8314 0.0000 -0.5556
vn -0.5147 0.6857 -0.5147
vn -0.7071 0.0000 -0.7071
vn -0.4044 0.6857 -0.6052
vn -0.5556 0.0000 -0.8314
vn -0.2785 0.6857 -0.6725
vn -0.3827 0.0000 -0.9239
vn -0.1420 0.6857 -0.7139
vn -0.1951 0.0000 -0.9808
vn 0.6052 -0.6857 -0.4044
vn 0.6725 -0.6857 -0.2785
vn 0.7139 -0.6857 -0.1420
vn 0.7279 -0.6857 0.0000
vn 0.7139 -0.6857 0.1420
vn 0.6725 -0.6857 0.2785
vn 0.6052 -0.6857 0.4044
vn 0.5147 -0.6857 0.5147
vn 0.4044 -0.6857 0.6052
vn 0.2785 -0.6857 0.6725
vn 0.1420 -0.6857 0.7139
vn 0.0000 -0.6857 0.7279
vn -0.1420 -0.6857 0.7139
vn -0.2785 -0.6857 0.6725
vn -0.4044 -0.6857 0.6052
vn -0.5147 -0.6857 0.5147
vn -0.6052 -0.6857 0.4044
vn -0.6725 -0.6857 0.2785
vn -0.7139 -0.6857 0.1420
vn -0.7279 -0.6857 0.0000
vn -0.7139 -0.6857 -0.1420
vn -0.6725 -0.6857 -0.2785
vn -0.6052 -0.6857 -0.4044
vn -0.5147 -0.6857 -0.5147
vn -0.4044 -0.6857 -0.6052
vn -0.2785 -0.6857 -0.6725
vn -0.1420 -0.6857 -0.7139
vn 0.0000 -0.6857 -0.7279
vn 0.1420 -0.6857 -0.7139
vn 0.2785 -0.6857 -0.6725
vn 0.4044 -0.6857 -0.6052
vn 0.5147 -0.6857 -0.5147
usemtl None
s 1
f 75//1 6//2 4//3 73//4
f 84//5 14//6 12//7 81//8
f 81//8 12//7 10//9 79//10
f 79//10 10//9 8//11 77//12
f 77//12 8//11 6//2 75//1
f 16//13 17//14 19//15 18//16
f 18//16 19//15 23//17 22//18
f 22//18 23//17 21//19 20//20
f 20//20 21//19 17//14 16//13
f 18//16 22//18 20//20 16//13
f 23//17 19//15 17//14 21//19
f 73//4 4//3 2//21 85//22
f 85//22 2//21 24//23 87//24
f 87//24 24//23 26//25 89//26
f 89//26 26//25 28//27 91//28
f 91//28 28//27 30//29 93//30
f 93//30 30//29 32//31 95//32
f 95//32 32//31 34//33 97//34
f 97//34 34//33 36//35 99//36
f 99//36 36//35 38//37 101//38
f 101//38 38//37 40//39 103//40
f 103//40 40//39 42//41 105//42
f 105//42 42//41 44//43 107//44
f 107//44 44//43 46//45 109//46
f 109//46 46//45 48//47 111//48
f 111//48 48//47 50//49 113//50
f 113//50 50//49 52//51 115//52
f 115//52 52//51 54//53 117//54
f 117//54 54//53 56//55 119//56
f 119//56 56//55 58//57 121//58
f 121//58 58//57 60//59 123//60
f 123//60 60//59 62//61 125//62
f 125//62 62//61 64//63 127//64
f 127//64 64//63 66//65 129//66
f 129//66 66//65 68//67 131//68
f 131//68 68//67 70//69 133//70
f 4//3 6//2 8//11 10//9 12//7 14//6 72//71 70//69 68//67 66//65 64//63 62//61 60//59 58//57 56//55 54//53 52//51 50//49 48//47 46//45 44//43 42//41 40//39 38//37 36//35 34//33 32//31 30//29 28//27 26//25 24//23 2//21
f 133//70 70//69 72//71 135//72
f 135//72 72//71 14//6 84//5
f 5//73 3//74 1//75 25//76 27//77 29//78 31//79 33//80 35//81 37//82 39//83 41//84 43//85 45//86 47//87 49//88 51//89 53//90 55//91 57//92 59//93 61//94 63//95 65//96 67//97 69//98 71//99 15//100 13//101 11//102 9//103 7//104
f 71//99 136//72 83//5 15//100
f 136//72 135//72 84//5 83//5
f 69//98 134//70 136//72 71//99
f 134//70 133//70 135//72 136//72
f 67//97 132//68 134//70 69//98
f 132//68 131//68 133//70 134//70
f 65//96 130//66 132//68 67//97
f 130//66 129//66 131//68 132//68
f 63//95 128//64 130//66 65//96
f 128//64 127//64 129//66 130//66
f 61//94 126//62 128//64 63//95
f 126//62 125//62 127//64 128//64
f 59//93 124//60 126//62 61//94
f 124//60 123//60 125//62 126//62
f 57//92 122//58 124//60 59//93
f 122//58 121//58 123//60 124//60
f 55//91 120//56 122//58 57//92
f 120//56 119//56 121//58 122//58
f 53//90 118//54 120//56 55//91
f 118//54 117//54 119//56 120//56
f 51//89 116//52 118//54 53//90
f 116//52 115//52 117//54 118//54
f 49//88 114//50 116//52 51//89
f 114//50 113//50 115//52 116//52
f 47//87 112//48 114//50 49//88
f 112//48 111//48 113//50 114//50
f 45//86 110//46 112//48 47//87
f 110//46 109//46 111//48 112//48
f 43//85 108//44 110//46 45//86
f 108//44 107//44 109//46 110//46
f 41//84 106//42 108//44 43//85
f 106//42 105//42 107//44 108//44
f 39//83 104//40 106//42 41//84
f 104//40 103//40 105//42 106//42
f 37//82 102//38 104//40 39//83
f 102//38 101//38 103//40 104//40
f 35//81 100//36 102//38 37//82
f 100//36 99//36 101//38 102//38
f 33//80 98//34 100//36 35//81
f 98//34 97//34 99//36 100//36
f 31//79 96//32 98//34 33//80
f 96//32 95//32 97//34 98//34
f 29//78 94//30 96//32 31//79
f 94//30 93//30 95//32 96//32
f 27//77 92//28 94//30 29//78
f 92//28 91//28 93//30 94//30
f 25//76 90//26 92//28 27//77
f 90//26 89//26 91//28 92//28
f 1//75 88//24 90//26 25//76
f 88//24 87//24 89//26 90//26
f 3//74 86//22 88//24 1//75
f 86//22 85//22 87//24 88//24
f 5//73 74//4 86//22 3//74
f 74//4 73//4 85//22 86//22
f 9//103 78//12 76//1 7//104
f 78//12 77//12 75//1 76//1
f 11//102 80//10 78//12 9//103
f 80//10 79//10 77//12 78//12
f 13//101 82//8 80//10 11//102
f 82//8 81//8 79//10 80//10
f 15//100 83//5 82//8 13//101
f 83//5 84//5 81//8 82//8
f 7//104 76//1 74//4 5//73
f 76//1 75//1 73//4 74//4
