# Blender v2.78 (sub 0) OBJ File: 'DirectionalLight.blend'
# www.blender.org
mtllib DirectionalLight.mtl
o Cone
v 0.136085 0.000844 0.091270
v 0.128119 0.578243 0.065007
v 0.128119 0.000844 0.065007
v 0.115181 0.578243 0.040803
v 0.115181 0.000844 0.040803
v 0.097770 0.578243 0.019588
v 0.097770 0.000844 0.019588
v 0.076555 0.578243 0.002177
v 0.076555 0.000844 0.002177
v 0.052351 0.578243 -0.010760
v 0.052351 0.000844 -0.010760
v 0.026088 0.578243 -0.018727
v 0.026088 0.000844 -0.018727
v -0.001225 0.578243 -0.021417
v -0.001225 0.000844 -0.021417
v -0.301225 0.553474 0.418583
v -0.301225 0.613474 0.418583
v -0.301225 0.553474 -0.181417
v -0.301225 0.613474 -0.181417
v 0.298775 0.553474 0.418583
v 0.298775 0.613474 0.418583
v 0.298775 0.553474 -0.181417
v 0.298775 0.613474 -0.181417
v 0.136085 0.578243 0.091270
v 0.138775 0.000844 0.118583
v 0.138775 0.578243 0.118583
v 0.136085 0.000844 0.145896
v 0.136085 0.578243 0.145896
v 0.128119 0.000844 0.172159
v 0.128119 0.578243 0.172159
v 0.115181 0.000844 0.196363
v 0.115181 0.578243 0.196363
v 0.097770 0.000844 0.217578
v 0.097770 0.578243 0.217578
v 0.076555 0.000844 0.234989
v 0.076555 0.578243 0.234989
v 0.052351 0.000844 0.247926
v 0.052351 0.578243 0.247926
v 0.026088 0.000844 0.255893
v 0.026088 0.578243 0.255893
v -0.001225 0.000844 0.258583
v -0.001225 0.578243 0.258583
v -0.028537 0.000844 0.255893
v -0.028537 0.578243 0.255893
v -0.054800 0.000844 0.247926
v -0.054800 0.578243 0.247926
v -0.079004 0.000844 0.234989
v -0.079004 0.578243 0.234989
v -0.100220 0.000844 0.217578
v -0.100220 0.578243 0.217578
v -0.117630 0.000844 0.196363
v -0.117630 0.578243 0.196363
v -0.130568 0.000844 0.172159
v -0.130568 0.578243 0.172159
v -0.138534 0.000844 0.145896
v -0.138534 0.578243 0.145896
v -0.141225 0.000844 0.118583
v -0.141225 0.578243 0.118583
v -0.138534 0.000844 0.091270
v -0.138534 0.578243 0.091270
v -0.130568 0.000844 0.065007
v -0.130568 0.578243 0.065007
v -0.117630 0.000844 0.040803
v -0.117630 0.578243 0.040803
v -0.100219 0.000844 0.019588
v -0.100219 0.578243 0.019588
v -0.079004 0.000844 0.002177
v -0.079004 0.578243 0.002177
v -0.054800 0.000844 -0.010760
v -0.054800 0.578243 -0.010760
v -0.028537 0.000844 -0.018727
v -0.028537 0.578243 -0.018727
v 0.115181 0.385777 0.040803
v 0.115181 0.193310 0.040803
v 0.097770 0.385777 0.019588
v 0.097770 0.193310 0.019588
v 0.076555 0.385777 0.002177
v 0.076555 0.193310 0.002177
v 0.052351 0.385777 -0.010760
v 0.052351 0.193310 -0.010760
v 0.026088 0.385777 -0.018727
v 0.026088 0.193310 -0.018727
v -0.001225 0.193310 -0.021417
v -0.001225 0.385777 -0.021417
v 0.128119 0.385777 0.065007
v 0.128119 0.193310 0.065007
v 0.136085 0.385777 0.091270
v 0.136085 0.193310 0.091270
v 0.138775 0.385777 0.118583
v 0.138775 0.193310 0.118583
v 0.136085 0.385777 0.145896
v 0.136085 0.193310 0.145896
v 0.128119 0.385777 0.172159
v 0.128119 0.193310 0.172159
v 0.115181 0.385777 0.196363
v 0.115181 0.193310 0.196363
v 0.097770 0.385777 0.217578
v 0.097770 0.193310 0.217578
v 0.076555 0.385777 0.234989
v 0.076555 0.193310 0.234989
v 0.052351 0.385777 0.247926
v 0.052351 0.193310 0.247926
v 0.026088 0.385777 0.255893
v 0.026088 0.193310 0.255893
v -0.001225 0.385777 0.258583
v -0.001225 0.193310 0.258583
v -0.028537 0.385777 0.255893
v -0.028537 0.193310 0.255893
v -0.054800 0.385777 0.247926
v -0.054800 0.193310 0.247926
v -0.079004 0.385777 0.234989
v -0.079004 0.193310 0.234989
v -0.100220 0.385777 0.217578
v -0.100220 0.193310 0.217578
v -0.117630 0.385777 0.196363
v -0.117630 0.193310 0.196363
v -0.130568 0.385777 0.172159
v -0.130568 0.193310 0.172159
v -0.138534 0.385777 0.145896
v -0.138534 0.193310 0.145896
v -0.141225 0.385777 0.118583
v -0.141225 0.193310 0.118583
v -0.138534 0.385777 0.091270
v -0.138534 0.193310 0.091270
v -0.130568 0.385777 0.065007
v -0.130568 0.193310 0.065007
v -0.117630 0.385777 0.040803
v -0.117630 0.193310 0.040803
v -0.100219 0.385777 0.019588
v -0.100219 0.193310 0.019588
v -0.079004 0.385777 0.002177
v -0.079004 0.193310 0.002177
v -0.054800 0.385777 -0.010760
v -0.054800 0.193310 -0.010760
v -0.028537 0.385777 -0.018727
v -0.028537 0.193310 -0.018727
vn 0.7730 0.0000 -0.6344
vn 0.0980 0.0000 -0.9952
vn 0.2903 0.0000 -0.9569
vn 0.4714 0.0000 -0.8819
vn 0.6344 0.0000 -0.7730
vn -1.0000 0.0000 0.0000
vn 0.0000 0.0000 -1.0000
vn 1.0000 0.0000 0.0000
vn 0.0000 0.0000 1.0000
vn 0.0000 -1.0000 0.0000
vn 0.0000 1.0000 0.0000
vn 0.8819 0.0000 -0.4714
vn 0.9569 0.0000 -0.2903
vn 0.9952 0.0000 -0.0980
vn 0.9952 0.0000 0.0980
vn 0.9569 0.0000 0.2903
vn 0.8819 0.0000 0.4714
vn 0.7730 0.0000 0.6344
vn 0.6344 0.0000 0.7730
vn 0.4714 0.0000 0.8819
vn 0.2903 0.0000 0.9569
vn 0.0980 0.0000 0.9952
vn -0.0980 0.0000 0.9952
vn -0.2903 0.0000 0.9569
vn -0.4714 0.0000 0.8819
vn -0.6344 0.0000 0.7730
vn -0.7730 0.0000 0.6344
vn -0.8819 0.0000 0.4714
vn -0.9569 0.0000 0.2903
vn -0.9952 0.0000 0.0980
vn -0.9952 0.0000 -0.0980
vn -0.9569 0.0000 -0.2903
vn -0.8819 0.0000 -0.4714
vn -0.7730 0.0000 -0.6344
vn -0.6344 0.0000 -0.7730
vn -0.4714 0.0000 -0.8819
vn -0.2903 0.0000 -0.9569
vn -0.0980 0.0000 -0.9952
usemtl None
s off
f 75//1 6//1 4//1 73//1
f 84//2 14//2 12//2 81//2
f 81//3 12//3 10//3 79//3
f 79//4 10//4 8//4 77//4
f 77//5 8//5 6//5 75//5
f 16//6 17//6 19//6 18//6
f 18//7 19//7 23//7 22//7
f 22//8 23//8 21//8 20//8
f 20//9 21//9 17//9 16//9
f 18//10 22//10 20//10 16//10
f 23//11 19//11 17//11 21//11
f 73//12 4//12 2//12 85//12
f 85//13 2//13 24//13 87//13
f 87//14 24//14 26//14 89//14
f 89//15 26//15 28//15 91//15
f 91//16 28//16 30//16 93//16
f 93//17 30//17 32//17 95//17
f 95//18 32//18 34//18 97//18
f 97//19 34//19 36//19 99//19
f 99//20 36//20 38//20 101//20
f 101//21 38//21 40//21 103//21
f 103//22 40//22 42//22 105//22
f 105//23 42//23 44//23 107//23
f 107//24 44//24 46//24 109//24
f 109//25 46//25 48//25 111//25
f 111//26 48//26 50//26 113//26
f 113//27 50//27 52//27 115//27
f 115//28 52//28 54//28 117//28
f 117//29 54//29 56//29 119//29
f 119//30 56//30 58//30 121//30
f 121//31 58//31 60//31 123//31
f 123//32 60//32 62//32 125//32
f 125//33 62//33 64//33 127//33
f 127//34 64//34 66//34 129//34
f 129//35 66//35 68//35 131//35
f 131//36 68//36 70//36 133//36
f 4//11 6//11 8//11 10//11 12//11 14//11 72//11 70//11 68//11 66//11 64//11 62//11 60//11 58//11 56//11 54//11 52//11 50//11 48//11 46//11 44//11 42//11 40//11 38//11 36//11 34//11 32//11 30//11 28//11 26//11 24//11 2//11
f 133//37 70//37 72//37 135//37
f 135//38 72//38 14//38 84//38
f 5//10 3//10 1//10 25//10 27//10 29//10 31//10 33//10 35//10 37//10 39//10 41//10 43//10 45//10 47//10 49//10 51//10 53//10 55//10 57//10 59//10 61//10 63//10 65//10 67//10 69//10 71//10 15//10 13//10 11//10 9//10 7//10
f 71//38 136//38 83//38 15//38
f 136//38 135//38 84//38 83//38
f 69//37 134//37 136//37 71//37
f 134//37 133//37 135//37 136//37
f 67//36 132//36 134//36 69//36
f 132//36 131//36 133//36 134//36
f 65//35 130//35 132//35 67//35
f 130//35 129//35 131//35 132//35
f 63//34 128//34 130//34 65//34
f 128//34 127//34 129//34 130//34
f 61//33 126//33 128//33 63//33
f 126//33 125//33 127//33 128//33
f 59//32 124//32 126//32 61//32
f 124//32 123//32 125//32 126//32
f 57//31 122//31 124//31 59//31
f 122//31 121//31 123//31 124//31
f 55//30 120//30 122//30 57//30
f 120//30 119//30 121//30 122//30
f 53//29 118//29 120//29 55//29
f 118//29 117//29 119//29 120//29
f 51//28 116//28 118//28 53//28
f 116//28 115//28 117//28 118//28
f 49//27 114//27 116//27 51//27
f 114//27 113//27 115//27 116//27
f 47//26 112//26 114//26 49//26
f 112//26 111//26 113//26 114//26
f 45//25 110//25 112//25 47//25
f 110//25 109//25 111//25 112//25
f 43//24 108//24 110//24 45//24
f 108//24 107//24 109//24 110//24
f 41//23 106//23 108//23 43//23
f 106//23 105//23 107//23 108//23
f 39//22 104//22 106//22 41//22
f 104//22 103//22 105//22 106//22
f 37//21 102//21 104//21 39//21
f 102//21 101//21 103//21 104//21
f 35//20 100//20 102//20 37//20
f 100//20 99//20 101//20 102//20
f 33//19 98//19 100//19 35//19
f 98//19 97//19 99//19 100//19
f 31//18 96//18 98//18 33//18
f 96//18 95//18 97//18 98//18
f 29//17 94//17 96//17 31//17
f 94//17 93//17 95//17 96//17
f 27//16 92//16 94//16 29//16
f 92//16 91//16 93//16 94//16
f 25//15 90//15 92//15 27//15
f 90//15 89//15 91//15 92//15
f 1//14 88//14 90//14 25//14
f 88//14 87//14 89//14 90//14
f 3//13 86//13 88//13 1//13
f 86//13 85//13 87//13 88//13
f 5//12 74//12 86//12 3//12
f 74//12 73//12 85//12 86//12
f 9//5 78//5 76//5 7//5
f 78//5 77//5 75//5 76//5
f 11//4 80//4 78//4 9//4
f 80//4 79//4 77//4 78//4
f 13//3 82//3 80//3 11//3
f 82//3 81//3 79//3 80//3
f 15//2 83//2 82//2 13//2
f 83//2 84//2 81//2 82//2
f 7//1 76//1 74//1 5//1
f 76//1 75//1 73//1 74//1
