# Blender v2.78 (sub 0) OBJ File: 'SpotLight.blend'
# www.blender.org
mtllib SpotLight.mtl
o Cone
v -0.001225 0.003474 -0.181417
v 0.113580 0.003474 -0.158580
v 0.210907 0.003474 -0.093549
v 0.275939 0.003474 0.003778
v 0.298775 0.003474 0.118583
v -0.001225 0.603474 0.118583
v 0.275939 0.003474 0.233388
v 0.210907 0.003474 0.330715
v 0.113580 0.003474 0.395747
v -0.001225 0.003474 0.418583
v -0.116030 0.003474 0.395747
v -0.213357 0.003474 0.330716
v -0.278389 0.003474 0.233388
v -0.301225 0.003474 0.118583
v -0.278388 0.003474 0.003778
v -0.213357 0.003474 -0.093549
v -0.116030 0.003474 -0.158581
v -0.301225 0.553474 0.418583
v -0.301225 0.613474 0.418583
v -0.301225 0.553474 -0.181417
v -0.301225 0.613474 -0.181417
v 0.298775 0.553474 0.418583
v 0.298775 0.613474 0.418583
v 0.298775 0.553474 -0.181417
v 0.298775 0.613474 -0.181417
v -0.001225 0.003474 -0.091417
v 0.079139 0.003474 -0.075431
v 0.147268 0.003474 -0.029909
v 0.192790 0.003474 0.038220
v 0.208775 0.003474 0.118583
v 0.192790 0.003474 0.198947
v 0.147268 0.003474 0.267076
v 0.079139 0.003474 0.312598
v -0.001225 0.003474 0.328583
v -0.081588 0.003474 0.312598
v -0.149717 0.003474 0.267076
v -0.195239 0.003474 0.198947
v -0.211225 0.003474 0.118583
v -0.195239 0.003474 0.038220
v -0.149717 0.003474 -0.029909
v -0.081588 0.003474 -0.075431
v -0.001225 0.163474 -0.035492
v 0.057737 0.163474 -0.023764
v 0.107723 0.163474 0.009636
v 0.141122 0.163474 0.059621
v 0.152851 0.163474 0.118583
v 0.141122 0.163474 0.177545
v 0.107723 0.163474 0.227531
v 0.057737 0.163474 0.260930
v -0.001225 0.163474 0.272659
v -0.060187 0.163474 0.260930
v -0.110172 0.163474 0.227531
v -0.143572 0.163474 0.177545
v -0.155300 0.163474 0.118583
v -0.143572 0.163474 0.059621
v -0.110172 0.163474 0.009636
v -0.060187 0.163474 -0.023764
v -0.001225 0.163474 0.118583
vn 0.1752 0.4403 -0.8806
vn 0.4988 0.4403 -0.7465
vn 0.7465 0.4403 -0.4988
vn 0.8806 0.4403 -0.1752
vn 0.8806 0.4403 0.1752
vn 0.7465 0.4403 0.4988
vn 0.4988 0.4403 0.7465
vn 0.1752 0.4403 0.8806
vn -0.1752 0.4403 0.8806
vn -0.4988 0.4403 0.7465
vn -0.7465 0.4403 0.4988
vn -0.8806 0.4403 0.1752
vn -0.8806 0.4403 -0.1752
vn -0.7465 0.4403 -0.4988
vn -0.4988 0.4403 -0.7465
vn -0.1752 0.4403 -0.8806
vn 0.0000 -1.0000 0.0000
vn -1.0000 0.0000 0.0000
vn 0.0000 0.0000 -1.0000
vn 1.0000 0.0000 0.0000
vn 0.0000 0.0000 1.0000
vn 0.0000 1.0000 0.0000
vn 0.1845 -0.3243 0.9278
vn 0.1845 -0.3243 -0.9278
vn -0.5255 -0.3243 0.7865
vn 0.5255 -0.3243 -0.7865
vn -0.7865 -0.3243 0.5255
vn 0.7865 -0.3243 -0.5255
vn -0.9278 -0.3243 0.1845
vn 0.9278 -0.3243 -0.1845
vn -0.9278 -0.3243 -0.1845
vn 0.9278 -0.3243 0.1845
vn -0.7865 -0.3243 -0.5255
vn 0.7865 -0.3243 0.5255
vn -0.5255 -0.3243 -0.7865
vn 0.5255 -0.3243 0.7865
vn -0.1845 -0.3243 -0.9278
vn -0.1845 -0.3243 0.9278
usemtl None
s off
f 1//1 6//1 2//1
f 2//2 6//2 3//2
f 3//3 6//3 4//3
f 4//4 6//4 5//4
f 5//5 6//5 7//5
f 7//6 6//6 8//6
f 8//7 6//7 9//7
f 9//8 6//8 10//8
f 10//9 6//9 11//9
f 11//10 6//10 12//10
f 12//11 6//11 13//11
f 13//12 6//12 14//12
f 14//13 6//13 15//13
f 15//14 6//14 16//14
f 16//15 6//15 17//15
f 17//16 6//16 1//16
f 12//17 13//17 37//17 36//17
f 18//18 19//18 21//18 20//18
f 20//19 21//19 25//19 24//19
f 24//20 25//20 23//20 22//20
f 22//21 23//21 19//21 18//21
f 20//17 24//17 22//17 18//17
f 25//22 21//22 19//22 23//22
f 1//17 2//17 27//17 26//17
f 16//17 17//17 41//17 40//17
f 9//17 10//17 34//17 33//17
f 17//17 1//17 26//17 41//17
f 13//17 14//17 38//17 37//17
f 5//17 7//17 31//17 30//17
f 2//17 3//17 28//17 27//17
f 10//17 11//17 35//17 34//17
f 14//17 15//17 39//17 38//17
f 7//17 8//17 32//17 31//17
f 3//17 4//17 29//17 28//17
f 11//17 12//17 36//17 35//17
f 15//17 16//17 40//17 39//17
f 8//17 9//17 33//17 32//17
f 4//17 5//17 30//17 29//17
f 41//23 26//23 42//23 57//23
f 34//24 35//24 51//24 50//24
f 27//25 28//25 44//25 43//25
f 35//26 36//26 52//26 51//26
f 28//27 29//27 45//27 44//27
f 36//28 37//28 53//28 52//28
f 29//29 30//29 46//29 45//29
f 37//30 38//30 54//30 53//30
f 30//31 31//31 47//31 46//31
f 38//32 39//32 55//32 54//32
f 31//33 32//33 48//33 47//33
f 39//34 40//34 56//34 55//34
f 32//35 33//35 49//35 48//35
f 40//36 41//36 57//36 56//36
f 33//37 34//37 50//37 49//37
f 26//38 27//38 43//38 42//38
f 55//17 56//17 58//17
f 48//17 49//17 58//17
f 56//17 57//17 58//17
f 49//17 50//17 58//17
f 42//17 43//17 58//17
f 57//17 42//17 58//17
f 50//17 51//17 58//17
f 43//17 44//17 58//17
f 51//17 52//17 58//17
f 44//17 45//17 58//17
f 52//17 53//17 58//17
f 45//17 46//17 58//17
f 53//17 54//17 58//17
f 46//17 47//17 58//17
f 54//17 55//17 58//17
f 47//17 48//17 58//17
