# Blender v2.78 (sub 0) OBJ File: 'Road-4.blend'
# www.blender.org
mtllib Road-4.mtl
o Plane.004
v -7.000000 0.000000 10.000000
v -7.000000 0.000000 -10.000000
v 7.000000 0.000000 10.000000
v 7.000000 0.000000 -10.000000
v -10.000000 0.500000 -10.000000
v -10.000000 0.500000 10.000000
v -7.000000 0.500000 10.000000
v -7.000000 0.500000 -10.000000
v 7.000000 0.500000 -10.000000
v 7.000000 0.500000 10.000000
v 10.000000 0.500000 10.000000
v 10.000000 0.500000 -10.000000
vt 0.1500 0.0000
vt 0.1500 1.0000
vt 0.1500 1.0000
vt 0.1500 0.0000
vt 0.8500 0.0000
vt 0.8500 1.0000
vt 0.0000 0.0000
vt 0.0000 1.0000
vt 0.8500 0.0000
vt 1.0000 0.0000
vt 1.0000 1.0000
vt 0.8500 1.0000
vn 1.0000 0.0000 0.0000
vn 0.0000 1.0000 0.0000
vn -1.0000 0.0000 0.0000
usemtl Material
s off
f 1/1/1 2/2/1 8/3/1 7/4/1
f 1/1/2 3/5/2 4/6/2 2/2/2
f 6/7/2 7/4/2 8/3/2 5/8/2
f 10/9/2 11/10/2 12/11/2 9/12/2
f 4/6/3 3/5/3 10/9/3 9/12/3
