# Blender v2.78 (sub 0) OBJ File: 'Road-1.blend'
# www.blender.org
mtllib Road-1.mtl
o Plane.001
v -10.000000 0.000000 -7.000000
v -7.000000 0.000000 -7.000000
v -7.000000 0.000000 -10.000000
v 7.000000 0.000000 -7.000000
v 10.000000 0.000000 -7.000000
v 7.000000 0.000000 -10.000000
v -7.000000 0.000000 10.000000
v -10.000000 0.000000 7.000000
v -7.000000 0.000000 7.000000
v 7.000000 0.000000 10.000000
v 7.000000 0.000000 7.000000
v 10.000000 0.000000 7.000000
v -10.000000 0.500000 -7.000000
v -7.000000 0.500000 -7.000000
v -10.000000 0.500000 -10.000000
v -7.000000 0.500000 -10.000000
v 7.000000 0.500000 -7.000000
v 10.000000 0.500000 -7.000000
v 7.000000 0.500000 -10.000000
v 10.000000 0.500000 -10.000000
v -10.000000 0.500000 10.000000
v -7.000000 0.500000 10.000000
v -10.000000 0.500000 7.000000
v -7.000000 0.500000 7.000000
v 7.000000 0.500000 10.000000
v 10.000000 0.500000 10.000000
v 7.000000 0.500000 7.000000
v 10.000000 0.500000 7.000000
vt 0.0000 0.8500
vt 0.1500 0.8500
vt 0.1500 1.0000
vt 0.0000 1.0000
vt 0.8500 0.8500
vt 1.0000 0.8500
vt 1.0000 1.0000
vt 0.8500 1.0000
vt 0.0000 0.0000
vt 0.1500 0.0000
vt 0.1500 0.1500
vt 0.0000 0.1500
vt 0.8500 0.0000
vt 1.0000 0.0000
vt 1.0000 0.1500
vt 0.8500 0.1500
vt 0.1500 0.8500
vt 0.1500 1.0000
vt 0.1500 0.0000
vt 0.1500 0.1500
vt 0.0000 0.1500
vt 0.8500 1.0000
vt 0.8500 0.8500
vt 0.8500 0.1500
vt 0.8500 0.0000
vt 1.0000 0.8500
vt 1.0000 0.1500
vt 0.0000 0.8500
vn 0.0000 1.0000 0.0000
vn 1.0000 0.0000 0.0000
vn 0.0000 0.0000 -1.0000
vn -1.0000 0.0000 0.0000
vn 0.0000 0.0000 1.0000
usemtl None
s off
f 13/1/1 14/2/1 16/3/1 15/4/1
f 17/5/1 18/6/1 20/7/1 19/8/1
f 21/9/1 22/10/1 24/11/1 23/12/1
f 25/13/1 26/14/1 28/15/1 27/16/1
f 2/17/2 3/18/2 16/3/2 14/2/2
f 7/19/2 9/20/2 24/11/2 22/10/2
f 9/20/3 8/21/3 23/12/3 24/11/3
f 6/22/4 4/23/4 17/5/4 19/8/4
f 11/24/4 10/25/4 25/13/4 27/16/4
f 4/23/5 5/26/5 18/6/5 17/5/5
f 12/27/3 11/24/3 27/16/3 28/15/3
f 1/28/5 2/17/5 14/2/5 13/1/5
f 6/22/1 3/18/1 2/17/1 4/23/1
f 9/20/1 2/17/1 1/28/1 8/21/1
f 11/24/1 9/20/1 7/19/1 10/25/1
f 12/27/1 5/26/1 4/23/1 11/24/1
f 4/23/1 2/17/1 9/20/1 11/24/1
