# Blender v2.79 (sub 0) OBJ File: 'Road-4.blend'
# www.blender.org
mtllib Road-4.mtl
o Plane.004
v -7.000000 0.000000 10.000000
v -7.000000 0.000000 -10.000000
v 7.000000 0.000000 10.000000
v 7.000000 0.000000 -10.000000
v -10.000000 0.500000 -10.000000
v -10.000000 0.500000 10.000000
v -7.000000 0.500000 10.000000
v -7.000000 0.500000 -10.000000
v 7.000000 0.500000 -10.000000
v 7.000000 0.500000 10.000000
v 10.000000 0.500000 10.000000
v 10.000000 0.500000 -10.000000
vt 0.094411 0.287140
vt 0.094413 0.712601
vt 0.069414 0.712601
vt 0.069414 0.287140
vt 0.157227 0.000000
vt 0.842773 0.000000
vt 0.842773 1.000000
vt 0.157227 1.000000
vt 0.000000 0.000000
vt 0.140647 0.000000
vt 0.140647 1.000000
vt 0.000000 1.000000
vt 0.859353 0.000000
vt 1.000000 0.000000
vt 1.000000 1.000000
vt 0.859353 1.000000
vt 0.044353 0.712601
vt 0.044352 0.287140
vt 0.069351 0.287140
vt 0.069350 0.712601
vn 1.0000 0.0000 0.0000
vn 0.0000 1.0000 0.0000
vn -1.0000 0.0000 0.0000
usemtl Material
s off
f 1/1/1 2/2/1 8/3/1 7/4/1
f 1/5/2 3/6/2 4/7/2 2/8/2
f 6/9/2 7/10/2 8/11/2 5/12/2
f 10/13/2 11/14/2 12/15/2 9/16/2
f 4/17/3 3/18/3 10/19/3 9/20/3
