# Blender v2.78 (sub 0) OBJ File: 'Road-5.blend'
# www.blender.org
mtllib Road-5.mtl
o Plane.005
v -7.000000 -0.500000 -7.000000
v 7.000000 -0.500000 -7.000000
v 7.000000 -0.500000 10.000000
v -7.000000 -0.500000 10.000000
v -10.000000 0.000000 -10.000000
v -10.000000 0.000000 -7.000000
v -7.000000 0.000000 -7.000000
v -7.000000 0.000000 -10.000000
v 7.000000 0.000000 -7.000000
v 7.000000 0.000000 -10.000000
v 10.000000 0.000000 -7.000000
v 10.000000 0.000000 -10.000000
v 7.000000 0.000000 10.000000
v 10.000000 0.000000 10.000000
v -10.000000 0.000000 10.000000
v -7.000000 0.000000 10.000000
vt 0.6250 0.9274
vt 0.3750 0.9274
vt 0.3750 0.9185
vt 0.6250 0.9185
vt 0.0714 0.9274
vt 0.0714 0.9185
vt 0.1504 0.8495
vt 0.1504 0.0000
vt 0.8496 0.0000
vt 0.8496 0.8495
vt 0.0124 0.8500
vt 0.1369 0.8686
vt 0.1369 0.9876
vt 0.0124 0.9876
vt 0.8631 0.8686
vt 0.8631 0.9876
vt 0.9814 0.8500
vt 0.9814 0.9876
vt 0.8631 0.0000
vt 0.9814 0.0000
vt 0.0124 0.0000
vt 0.1369 0.0000
vt 0.9286 0.9274
vt 0.9286 0.9185
vn 0.0000 0.0000 1.0000
vn -1.0000 0.0000 0.0000
vn 0.0000 1.0000 0.0000
vn 1.0000 0.0000 0.0000
usemtl Material
s off
f 1/1/1 2/2/1 9/3/1 7/4/1
f 2/2/2 3/5/2 13/6/2 9/3/2
f 1/7/3 4/8/3 3/9/3 2/10/3
f 6/11/3 7/12/3 8/13/3 5/14/3
f 8/13/3 7/12/3 9/15/3 10/16/3
f 10/16/3 9/15/3 11/17/3 12/18/3
f 11/17/3 9/15/3 13/19/3 14/20/3
f 7/12/3 6/11/3 15/21/3 16/22/3
f 4/23/4 1/1/4 7/4/4 16/24/4
