# Blender v2.79 (sub 0) OBJ File: 'Road-1.blend'
# www.blender.org
mtllib Road-1.mtl
o Plane.001
v -10.000000 0.000000 -7.000000
v -7.000000 0.000000 -7.000000
v -7.000000 0.000000 -10.000000
v 7.000000 0.000000 -7.000000
v 10.000000 0.000000 -7.000000
v 7.000000 0.000000 -10.000000
v -7.000000 0.000000 10.000000
v -10.000000 0.000000 7.000000
v -7.000000 0.000000 7.000000
v 7.000000 0.000000 10.000000
v 7.000000 0.000000 7.000000
v 10.000000 0.000000 7.000000
v -10.000000 0.500000 -7.000000
v -7.000000 0.500000 -7.000000
v -10.000000 0.500000 -10.000000
v -7.000000 0.500000 -10.000000
v 7.000000 0.500000 -7.000000
v 10.000000 0.500000 -7.000000
v 7.000000 0.500000 -10.000000
v 10.000000 0.500000 -10.000000
v -10.000000 0.500000 10.000000
v -7.000000 0.500000 10.000000
v -10.000000 0.500000 7.000000
v -7.000000 0.500000 7.000000
v 7.000000 0.500000 10.000000
v 10.000000 0.500000 10.000000
v 7.000000 0.500000 7.000000
v 10.000000 0.500000 7.000000
vt 0.005009 0.855009
vt 0.144991 0.855009
vt 0.144991 0.994991
vt 0.005009 0.994991
vt 0.855368 0.855368
vt 0.994632 0.855368
vt 0.994632 0.994632
vt 0.855368 0.994632
vt 0.005453 0.005453
vt 0.144547 0.005453
vt 0.144547 0.144547
vt 0.005453 0.144547
vt 0.855851 0.005851
vt 0.994149 0.005851
vt 0.994149 0.144149
vt 0.855851 0.144149
vt 0.041289 0.939676
vt 0.112521 0.939676
vt 0.112521 0.951548
vt 0.041289 0.951548
vt 0.041289 0.903920
vt 0.112521 0.903920
vt 0.112521 0.915792
vt 0.041289 0.915792
vt 0.112521 0.891955
vt 0.041289 0.891955
vt 0.041289 0.880083
vt 0.112521 0.880083
vt 0.112521 0.963467
vt 0.041289 0.963467
vt 0.041289 0.951595
vt 0.112521 0.951595
vt 0.112521 0.927711
vt 0.041289 0.927711
vt 0.041289 0.915839
vt 0.112521 0.915839
vt 0.041289 0.927758
vt 0.112521 0.927758
vt 0.112521 0.939630
vt 0.041289 0.939630
vt 0.112521 0.903874
vt 0.041289 0.903874
vt 0.041289 0.892002
vt 0.112521 0.892002
vt 0.041289 0.963514
vt 0.112521 0.963514
vt 0.112521 0.975386
vt 0.041289 0.975386
vt 0.840198 0.985997
vt 0.159802 0.985997
vt 0.159802 0.840198
vt 0.840198 0.840198
vt 0.159802 0.159802
vt 0.014003 0.840198
vt 0.014003 0.159802
vt 0.840198 0.159802
vt 0.159802 0.014003
vt 0.840198 0.014003
vt 0.985997 0.159802
vt 0.985997 0.840198
vn 0.0000 1.0000 0.0000
vn 1.0000 0.0000 0.0000
vn 0.0000 0.0000 -1.0000
vn -1.0000 0.0000 0.0000
vn 0.0000 0.0000 1.0000
usemtl Material
s off
f 13/1/1 14/2/1 16/3/1 15/4/1
f 17/5/1 18/6/1 20/7/1 19/8/1
f 21/9/1 22/10/1 24/11/1 23/12/1
f 25/13/1 26/14/1 28/15/1 27/16/1
f 2/17/2 3/18/2 16/19/2 14/20/2
f 7/21/2 9/22/2 24/23/2 22/24/2
f 9/25/3 8/26/3 23/27/3 24/28/3
f 6/29/4 4/30/4 17/31/4 19/32/4
f 11/33/4 10/34/4 25/35/4 27/36/4
f 4/37/5 5/38/5 18/39/5 17/40/5
f 12/41/3 11/42/3 27/43/3 28/44/3
f 1/45/5 2/46/5 14/47/5 13/48/5
f 6/49/1 3/50/1 2/51/1 4/52/1
f 9/53/1 2/51/1 1/54/1 8/55/1
f 11/56/1 9/53/1 7/57/1 10/58/1
f 12/59/1 5/60/1 4/52/1 11/56/1
f 4/52/1 2/51/1 9/53/1 11/56/1
