# Blender v2.78 (sub 0) OBJ File: 'Road-3.blend'
# www.blender.org
mtllib Road-3.mtl
o Plane.003
v -7.000000 -0.500000 -7.000000
v 7.000000 -0.500000 -7.000000
v 10.000000 -0.500000 -7.000000
v -7.000000 -0.500000 7.000000
v -7.000000 -0.500000 10.000000
v 7.000000 -0.500000 7.000000
v 7.000000 -0.500000 10.000000
v 10.000000 -0.500000 7.000000
v -10.000000 0.000000 -10.000000
v -10.000000 0.000000 -7.000000
v -7.000000 0.000000 -7.000000
v -7.000000 0.000000 -10.000000
v 7.000000 0.000000 -7.000000
v 7.000000 0.000000 -10.000000
v 10.000000 0.000000 -7.000000
v 10.000000 0.000000 -10.000000
v -10.000000 0.000000 7.000000
v -7.000000 0.000000 7.000000
v -10.000000 0.000000 10.000000
v -7.000000 0.000000 10.000000
v 7.000000 0.000000 10.000000
v 7.000000 0.000000 7.000000
v 10.000000 0.000000 10.000000
v 10.000000 0.000000 7.000000
vt 0.9777 0.9393
vt 0.8945 0.9393
vt 0.8945 0.9254
vt 0.9777 0.9254
vt 0.8113 0.9393
vt 0.8113 0.9254
vt 0.8484 0.9386
vt 0.9231 0.9386
vt 0.9230 0.9511
vt 0.8484 0.9511
vt 1.0000 0.8383
vt 0.8500 0.8383
vt 0.8500 0.1500
vt 1.0000 0.1500
vt 0.1539 0.1500
vt 0.1539 0.0000
vt 0.8500 0.0000
vt 0.1539 0.8383
vt 0.0117 0.8578
vt 0.1383 0.8617
vt 0.1422 0.9883
vt 0.0117 0.9883
vt 0.8500 0.8617
vt 0.8500 0.9883
vt 1.0000 0.8617
vt 1.0000 0.9883
vt 0.0117 0.1500
vt 0.1383 0.1500
vt 0.0117 0.0078
vt 0.1383 0.0078
vt 0.8586 0.0086
vt 0.9914 0.0086
vt 0.9914 0.1414
vt 0.8586 0.1414
vt 0.1516 0.9386
vt 0.5000 0.9386
vt 0.5000 0.9511
vt 0.1516 0.9511
vt 0.0769 0.9386
vt 0.0769 0.9511
vn 0.0000 0.0000 -1.0000
vn -1.0000 0.0000 0.0000
vn 0.0000 0.0000 1.0000
vn 0.0000 1.0000 0.0000
vn 1.0000 0.0000 0.0000
usemtl Material
s off
f 8/1/1 6/2/1 22/3/1 24/4/1
f 6/2/2 7/5/2 21/6/2 22/3/2
f 2/7/3 3/8/3 15/9/3 13/10/3
f 3/11/4 2/12/4 6/13/4 8/14/4
f 4/15/4 5/16/4 7/17/4 6/13/4
f 2/12/4 1/18/4 4/15/4 6/13/4
f 10/19/4 11/20/4 12/21/4 9/22/4
f 12/21/4 11/20/4 13/23/4 14/24/4
f 14/24/4 13/23/4 15/25/4 16/26/4
f 11/20/4 10/19/4 17/27/4 18/28/4
f 18/28/4 17/27/4 19/29/4 20/30/4
f 21/31/4 23/32/4 24/33/4 22/34/4
f 4/35/5 1/36/5 11/37/5 18/38/5
f 1/36/3 2/7/3 13/10/3 11/37/3
f 5/39/5 4/35/5 18/38/5 20/40/5
