# Blender v2.78 (sub 0) OBJ File: 'Road-2.blend'
# www.blender.org
mtllib Road-2.mtl
o Plane.002
v -7.000000 -0.500000 -7.000000
v 7.000000 -0.500000 -7.000000
v -7.000000 -0.500000 10.000011
v -10.000000 -0.500000 7.000000
v -7.000000 -0.500000 7.000000
v 7.000000 -0.500000 10.000011
v 7.000000 -0.500000 7.000000
v 10.000000 -0.500000 7.000000
v -7.000000 0.000000 -7.000000
v 7.000000 0.000000 -7.000000
v -7.000000 0.000000 -10.000000
v 7.000000 0.000000 -10.000000
v -10.000000 0.000000 10.000011
v -7.000000 0.000000 10.000011
v -10.000000 0.000000 7.000000
v -7.000000 0.000000 7.000000
v 7.000000 0.000000 10.000011
v 10.000000 0.000000 10.000011
v 7.000000 0.000000 7.000000
v 10.000000 0.000000 7.000000
v 10.000000 -0.500000 -7.000000
v 10.000000 0.000000 -7.000000
v 10.000000 0.000000 -10.000000
v -10.000000 -0.500000 -7.000000
v -10.000000 0.000000 -7.000000
v -10.000000 0.000000 -10.000000
v -7.000000 -0.500000 -7.000000
v 7.000000 -0.500000 -7.000000
v -7.000000 -0.500000 10.000011
v -10.000000 -0.500000 7.000000
v -7.000000 -0.500000 7.000000
v 7.000000 -0.500000 10.000011
v 7.000000 -0.500000 7.000000
v 10.000000 -0.500000 7.000000
v -7.000000 0.000000 -7.000000
v 7.000000 0.000000 -7.000000
v -7.000000 0.000000 10.000011
v -10.000000 0.000000 7.000000
v -7.000000 0.000000 7.000000
v 7.000000 0.000000 10.000011
v 7.000000 0.000000 7.000000
v 10.000000 0.000000 7.000000
v 10.000000 -0.500000 -7.000000
v 10.000000 0.000000 -7.000000
v -10.000000 -0.500000 -7.000000
v -10.000000 0.000000 -7.000000
vt 0.8500 0.8500
vt 0.1500 0.8500
vt 0.1500 0.1500
vt 0.8500 0.1500
vt 0.0000 0.1500
vt 0.0000 0.8500
vt 0.1540 0.8572
vt 0.8460 0.8572
vt 0.8460 0.9947
vt 0.1540 0.9947
vt 0.0016 0.0016
vt 0.1469 0.0016
vt 0.1469 0.1461
vt 0.0016 0.1461
vt 0.8542 0.0015
vt 0.9985 0.0015
vt 0.9985 0.1462
vt 0.8542 0.1462
vt 0.1500 0.0000
vt 0.8500 0.0000
vt 1.0000 0.1500
vt 1.0000 0.8500
vt 0.9943 0.8572
vt 0.9943 0.9947
vt 0.0057 0.9947
vt 0.0057 0.8572
vt 0.3235 0.9502
vt 0.1735 0.9502
vt 0.1735 0.9252
vt 0.3235 0.9252
vt 0.0235 0.9502
vt 0.0235 0.9252
vt 0.3235 0.9251
vt 0.1735 0.9251
vt 0.1735 0.9001
vt 0.3235 0.9001
vt 0.1607 0.8750
vt 0.8393 0.8750
vt 0.8393 0.9000
vt 0.1607 0.9000
vt 0.0235 0.9251
vt 0.0235 0.9001
vt 0.9848 0.8750
vt 0.9848 0.9000
vt 0.0152 0.9000
vt 0.0152 0.8750
vn 0.0000 1.0000 0.0000
vn 1.0000 0.0000 0.0000
vn 0.0000 0.0000 -1.0000
vn 0.0000 0.0000 1.0000
vn -1.0000 0.0000 0.0000
usemtl Material
s off
f 2/1/1 1/2/1 5/3/1 7/4/1
f 4/5/1 5/3/1 1/2/1 24/6/1
f 9/7/1 10/8/1 12/9/1 11/10/1
f 13/11/1 14/12/1 16/13/1 15/14/1
f 17/15/1 18/16/1 20/17/1 19/18/1
f 3/19/1 6/20/1 7/4/1 5/3/1
f 2/1/1 7/4/1 8/21/1 21/22/1
f 12/9/1 10/8/1 22/23/1 23/24/1
f 9/7/1 11/10/1 26/25/1 25/26/1
f 29/27/2 31/28/2 39/29/2 37/30/2
f 31/28/3 30/31/3 38/32/3 39/29/3
f 34/33/3 33/34/3 41/35/3 42/36/3
f 27/37/4 28/38/4 36/39/4 35/40/4
f 33/34/5 32/41/5 40/42/5 41/35/5
f 36/39/4 28/38/4 43/43/4 44/44/4
f 27/37/4 35/40/4 46/45/4 45/46/4
